<svg width="23" height="20" viewBox="0 0 23 20" fill="none" xmlns="http://www.w3.org/2000/svg">
<path d="M11.6807 9.40619C11.8952 9.61886 12.1814 9.73706 12.4674 9.73706C12.7773 9.73706 13.0634 9.61886 13.2541 9.40619L16.9492 5.5538C17.3544 5.12847 17.3544 4.41941 16.9014 4.01767C16.4724 3.59234 15.7572 3.61591 15.352 4.06499L12.4674 7.06655L11.2754 5.81395C10.8702 5.38862 10.155 5.36486 9.72597 5.76663C9.29695 6.16839 9.27298 6.87743 9.67824 7.30276L11.6807 9.40619Z" fill="#D4DCE2"/>
<path d="M21.8128 3.33232C21.2168 3.19054 20.6208 3.54499 20.5016 4.13584L18.9521 10.6588C18.7614 11.4861 18.0224 12.0532 17.1642 12.0532L9.44035 12.0534C8.58215 12.0534 7.81938 11.4389 7.65242 10.6117L5.55454 0.850826C5.43531 0.354427 5.00629 0 4.48183 0H1.09668C0.500706 0 0 0.4964 0 1.08725C0 1.6781 0.500706 2.1745 1.09668 2.1745H3.57586L5.48303 11.0845C5.88827 12.9044 7.53319 14.2515 9.41639 14.2515H17.1164C18.9996 14.2515 20.597 12.9989 21.026 11.179L22.5755 4.65599C22.7664 4.06497 22.3849 3.47412 21.8127 3.33236L21.8128 3.33232Z" fill="#D4DCE2"/>
<path d="M11.1089 17.4891C11.1089 18.4811 10.2978 19.2853 9.29707 19.2853C8.29652 19.2853 7.48535 18.4811 7.48535 17.4891C7.48535 16.497 8.29652 15.6929 9.29707 15.6929C10.2978 15.6929 11.1089 16.4971 11.1089 17.4891Z" fill="#D4DCE2"/>
<path d="M18.9283 17.4891C18.9283 18.4811 18.1171 19.2853 17.1164 19.2853C16.1159 19.2853 15.3047 18.4811 15.3047 17.4891C15.3047 16.497 16.1159 15.6929 17.1164 15.6929C18.1172 15.6929 18.9283 16.4971 18.9283 17.4891Z" fill="#D4DCE2"/>
</svg>
