<svg width="20" height="19" viewBox="0 0 20 19" fill="none" xmlns="http://www.w3.org/2000/svg">
<path d="M5.87389 0C2.64601 0 0 2.73244 0 6.06489C0 7.95506 1.06659 9.60357 2.7276 11.4568C4.38861 13.31 6.70525 15.4333 9.49464 18.3159L10 18.8365L10.5052 18.3159C13.3045 15.4327 15.6191 13.3103 17.278 11.4568C18.9369 9.60327 20 7.95363 20 6.06489C20 2.73252 17.3541 0 14.1261 0C12.2994 0 10.9864 1.09905 9.99973 2.42532C9.01323 1.09989 7.69951 0 5.87335 0H5.87389ZM5.87389 1.47308C7.44509 1.47308 8.56114 2.46312 9.38858 3.8841L10.0001 4.93714L10.6142 3.8841C11.4419 2.46312 12.555 1.47308 14.1262 1.47308C16.5721 1.47308 18.5708 3.53392 18.5708 6.06489C18.5708 7.37505 17.8053 8.69375 16.2286 10.4551C14.7701 12.0847 12.546 14.1717 10.0002 16.762C7.46146 14.1718 5.2408 12.0852 3.78039 10.4551C2.2009 8.69299 1.42974 7.37328 1.42974 6.06489C1.42974 3.53401 3.42832 1.47308 5.87425 1.47308H5.87389Z" fill="#D4DCE2"/>
</svg>
