<svg width="14" height="13" viewBox="0 0 14 13" fill="none" xmlns="http://www.w3.org/2000/svg">
<path d="M4.73613 0C2.64599 0 0.945312 1.70168 0.945312 3.79234V9.20867C0.945312 11.2991 2.647 13 4.73766 13H10.154C12.2444 13 13.9453 11.2983 13.9453 9.20766V3.79082C13.9453 1.70068 12.2436 0 10.153 0H4.73613ZM11.3453 2.08C11.6324 2.08 11.8653 2.31296 11.8653 2.6C11.8653 2.88704 11.6324 3.12 11.3453 3.12C11.0583 3.12 10.8253 2.88704 10.8253 2.6C10.8253 2.31296 11.0583 2.08 11.3453 2.08ZM7.44531 3.12C9.30951 3.12 10.8253 4.6358 10.8253 6.5C10.8253 8.3642 9.30925 9.88 7.44531 9.88C5.58111 9.88 4.06531 8.36394 4.06531 6.5C4.06531 4.63606 5.58111 3.12 7.44531 3.12ZM7.44531 4.16C6.15285 4.16 5.10531 5.20754 5.10531 6.5C5.10531 7.79246 6.15285 8.84 7.44531 8.84C8.73777 8.84 9.78531 7.79246 9.78531 6.5C9.78531 5.20754 8.73777 4.16 7.44531 4.16Z" fill="#3A5B62"/>
</svg>
