<svg width="19" height="19" viewBox="0 0 19 19" fill="none" xmlns="http://www.w3.org/2000/svg">
<path d="M18.7332 16.653L12.8334 10.8038C13.5996 9.67121 14.0112 8.33997 14.0112 6.94549C14.0112 5.09027 13.2826 3.34622 11.9593 2.03417C10.6362 0.722359 8.87699 0 7.00571 0C5.1344 0 3.37523 0.722359 2.05181 2.0343C0.728488 3.34625 0 5.09037 0 6.94529C0 8.80022 0.728622 10.5446 2.05194 11.8566C3.37526 13.1686 5.13423 13.8908 7.00585 13.8908C8.42793 13.8908 9.78493 13.4733 10.9354 12.697L16.8295 18.5401C17.0284 18.7375 17.3943 18.6948 17.6464 18.4445L18.6367 17.4626C18.889 17.2128 18.9322 16.8501 18.7332 16.6528L18.7332 16.653ZM7.00595 12.0097C4.18935 12.0097 1.89815 9.73821 1.89815 6.94583C1.89815 4.15357 4.18962 1.88193 7.00595 1.88193C9.82241 1.88193 12.1137 4.15371 12.1137 6.94583C12.1137 9.73821 9.82254 12.0097 7.00595 12.0097Z" fill="#D4DCE2"/>
<path d="M10.5044 6.26271H7.69489V3.4775C7.69489 3.29648 7.54691 3.1499 7.36446 3.1499H6.64782C6.46524 3.1499 6.31739 3.29661 6.31739 3.4775V6.26285L3.50817 6.26272C3.32559 6.26272 3.17773 6.40943 3.17773 6.59031V7.30079C3.17773 7.4818 3.32572 7.62838 3.50817 7.62838H6.31739V10.4137C6.31739 10.5947 6.46537 10.7415 6.64782 10.7415H7.36446C7.54704 10.7415 7.69489 10.5947 7.69489 10.4137L7.69476 7.62825H10.5043C10.6868 7.62825 10.8347 7.48167 10.8347 7.30065V6.59018C10.8348 6.40955 10.687 6.26271 10.5044 6.26271V6.26271Z" fill="#D4DCE2"/>
</svg>
