<svg width="120" height="220" viewBox="0 0 120 220" fill="none" xmlns="http://www.w3.org/2000/svg">
<path d="M2.8228 146.95L4.20416 147.329L3.99668 148.065L0.267578 147.042L0.644311 145.694C0.764428 145.261 0.960993 144.958 1.23399 144.796C1.50698 144.633 1.82365 144.601 2.18947 144.698C2.54436 144.796 2.79552 144.991 2.94293 145.272C3.09035 145.559 3.1067 145.911 2.98659 146.333L2.8228 146.95ZM1.98199 145.451C1.79635 145.397 1.63799 145.413 1.51241 145.483C1.38684 145.559 1.28858 145.711 1.22852 145.938L1.08109 146.468L2.22766 146.782L2.37508 146.252C2.48974 145.824 2.36418 145.554 1.98199 145.451Z" fill="#7D7D7D"/>
<path d="M2.66907 139.881L4.7493 140.78C5.02776 140.899 5.26253 140.926 5.45362 140.866C5.64472 140.807 5.79213 140.661 5.89041 140.433C5.98869 140.206 5.99414 140.006 5.91224 139.822C5.82488 139.637 5.6447 139.491 5.36625 139.367L3.28601 138.468L3.59177 137.77L5.67203 138.669C5.99963 138.809 6.25076 138.988 6.42547 139.21C6.60019 139.432 6.69302 139.67 6.7094 139.93C6.72578 140.19 6.67666 140.46 6.55654 140.731C6.3709 141.153 6.0979 141.435 5.73209 141.575C5.36627 141.716 4.9404 141.684 4.44355 141.472L2.36328 140.574L2.66907 139.881Z" fill="#7D7D7D"/>
<path d="M9.93753 134.333L8.17941 134.311L7.99923 134.598L9.28233 135.383L8.8783 136.032L5.58594 134.024L6.36124 132.779C6.59602 132.4 6.86902 132.167 7.18023 132.081C7.49145 131.994 7.79721 132.048 8.10297 132.232C8.35412 132.384 8.51794 132.579 8.59984 132.822C8.68174 133.061 8.67082 133.331 8.56708 133.623L10.3907 133.613L9.93753 134.333ZM7.55151 134.322L7.88459 133.786C8.11391 133.412 8.06475 133.126 7.73169 132.92C7.57336 132.822 7.42047 132.795 7.27851 132.828C7.13109 132.866 7.00006 132.979 6.87994 133.169L6.54689 133.705L7.55151 134.322Z" fill="#7D7D7D"/>
<path d="M10.4453 128.113L11.2206 128.741L12.0888 127.69L12.5474 128.064L11.6793 129.114L12.4873 129.769L13.4592 128.589L13.9396 128.979L12.4819 130.749L9.48438 128.324L10.9422 126.554L11.4172 126.938L10.4453 128.113Z" fill="#7D7D7D"/>
<path d="M22.1506 121.51L21.5391 121.981L18.5579 120.974L20.1686 123.036L19.5571 123.507L17.1875 120.476L17.799 120.005L20.791 121.028L19.164 118.949L19.7755 118.479L22.1506 121.51Z" fill="#7D7D7D"/>
<path d="M26.9502 117.655L25.5961 118.408L25.7381 119.214L25.0228 119.609L24.4004 115.609L25.1702 115.182L28.2769 117.807L27.5617 118.202L26.9502 117.655ZM26.4806 117.249L25.1866 116.113L25.4869 117.802L26.4806 117.249Z" fill="#7D7D7D"/>
<path d="M32.4864 111.863L32.7103 112.432L31.7166 112.816L32.8959 115.826L32.1752 116.102L30.9959 113.092L30.0022 113.471L29.7783 112.903L32.4864 111.863Z" fill="#7D7D7D"/>
<path d="M37.0291 110.51L37.5532 112.697C37.6242 112.99 37.7389 113.195 37.9027 113.309C38.0665 113.423 38.2739 113.455 38.5196 113.396C38.7599 113.342 38.9291 113.222 39.0219 113.044C39.1148 112.865 39.1311 112.632 39.0602 112.34L38.5415 110.153L39.2895 109.98L39.8136 112.167C39.8955 112.513 39.901 112.822 39.83 113.087C39.7591 113.358 39.6171 113.574 39.4151 113.742C39.2131 113.91 38.9673 114.034 38.678 114.099C38.2248 114.202 37.8317 114.153 37.4986 113.953C37.1656 113.747 36.9363 113.385 36.8107 112.871L36.292 110.684L37.0291 110.51Z" fill="#7D7D7D"/>
<path d="M45.8685 112.957L44.8311 111.55L44.4925 111.582L44.629 113.071L43.8592 113.141L43.5098 109.32L44.9785 109.19C45.4262 109.152 45.7756 109.228 46.0323 109.422C46.2889 109.617 46.4308 109.893 46.4636 110.245C46.4909 110.532 46.4308 110.781 46.2889 110.992C46.1469 111.203 45.9231 111.355 45.6228 111.441L46.7256 112.881L45.8685 112.957ZM44.4434 111.057L45.0768 111.003C45.519 110.965 45.721 110.749 45.6828 110.364C45.6664 110.18 45.6009 110.039 45.4808 109.947C45.3661 109.855 45.1914 109.818 44.9676 109.839L44.3342 109.899L44.4434 111.057Z" fill="#7D7D7D"/>
<path d="M51.1808 109.633L51.1371 110.629L52.5075 110.683L52.4857 111.268L51.1153 111.214L51.0716 112.248L52.6058 112.313L52.5785 112.924L50.2744 112.832L50.4328 109L52.7368 109.092L52.7095 109.698L51.1808 109.633Z" fill="#7D7D7D"/>
<path d="M96.0238 143.378C95.8109 143.378 95.6089 143.248 95.5379 143.032C90.422 128.254 78.3392 116.817 63.2207 112.443C62.9477 112.362 62.7893 112.08 62.8712 111.81C62.9531 111.539 63.2371 111.388 63.5101 111.463C78.9507 115.929 91.2846 127.61 96.5098 142.701C96.6026 142.967 96.4606 143.259 96.1931 143.351C96.1385 143.367 96.0784 143.378 96.0238 143.378Z" fill="#7D7D7D"/>
<path d="M23.3301 144.79C23.2319 144.953 23.0844 145.088 22.8933 145.185C22.7022 145.283 22.462 145.337 22.189 145.337C21.916 145.337 21.6703 145.288 21.4574 145.196C21.239 145.104 21.0697 144.969 20.9387 144.796C20.8076 144.623 20.7367 144.417 20.7148 144.189H21.5393C21.5557 144.346 21.6212 144.476 21.7304 144.579C21.8396 144.682 21.9815 144.736 22.1617 144.736C22.32 144.736 22.4456 144.693 22.533 144.606C22.6203 144.52 22.664 144.411 22.664 144.276C22.664 144.157 22.6313 144.06 22.5603 143.978C22.4893 143.903 22.4019 143.838 22.2982 143.789C22.1945 143.74 22.0471 143.686 21.8614 143.627C21.6212 143.545 21.4246 143.47 21.2717 143.388C21.1189 143.313 20.9878 143.199 20.8786 143.047C20.7694 142.901 20.7148 142.706 20.7148 142.468C20.7148 142.138 20.8349 141.878 21.0752 141.689C21.3154 141.499 21.6321 141.402 22.0252 141.402C22.4347 141.402 22.7623 141.499 23.0026 141.694C23.2482 141.889 23.3848 142.149 23.4175 142.479H22.5821C22.5603 142.344 22.5002 142.23 22.4074 142.138C22.3146 142.051 22.1835 142.003 22.0197 142.003C21.8778 142.003 21.7632 142.041 21.6758 142.116C21.5884 142.192 21.5447 142.3 21.5447 142.441C21.5447 142.555 21.5775 142.647 21.6485 142.723C21.714 142.798 21.8014 142.858 21.9051 142.907C22.0088 142.955 22.1508 143.004 22.331 143.064C22.5821 143.15 22.7787 143.231 22.937 143.307C23.0899 143.383 23.2264 143.497 23.3356 143.648C23.4448 143.8 23.4994 144 23.4994 144.244C23.483 144.444 23.4284 144.623 23.3301 144.79Z" fill="#7D7D7D"/>
<path d="M30.7338 141.461V142.068H29.6636V145.294H28.8938V142.068H27.8291V141.461H30.7338Z" fill="#7D7D7D"/>
<path d="M38.3331 141.461L37.0228 143.957V145.299H36.2475V143.957L34.9316 141.461H35.8216L36.646 143.139L37.4705 141.461H38.3331Z" fill="#7D7D7D"/>
<path d="M43.5804 144.709H44.8799V145.294H42.8105V141.456H43.5858V144.709H43.5804Z" fill="#7D7D7D"/>
<path d="M50.1663 142.068V143.064H51.5368V143.648H50.1663V144.682H51.7006V145.294H49.3965V141.456H51.7006V142.062H50.1663V142.068Z" fill="#7D7D7D"/>
<path d="M30.9739 163.335C30.6518 163.146 30.3242 162.854 29.9911 162.458L23.5703 155.703C23.4938 155.595 23.4337 155.541 23.3901 155.541C23.3136 155.541 23.2754 155.644 23.2754 155.849C23.2754 156.645 23.2918 157.544 23.3246 158.55C23.3355 158.946 23.3464 159.389 23.3573 159.893C23.3682 160.396 23.3737 160.916 23.3737 161.463C23.3737 161.825 23.4884 162.101 23.7122 162.296C23.9361 162.491 24.2801 162.648 24.7442 162.756C25.039 162.832 25.1919 162.946 25.1919 163.103C25.1919 163.178 25.1482 163.238 25.0663 163.281C24.9844 163.325 24.8916 163.346 24.7933 163.346C24.4384 163.346 24.078 163.335 23.7068 163.314L22.8987 163.297C22.582 163.297 22.2653 163.303 21.9596 163.325C21.6538 163.341 21.4518 163.357 21.3645 163.368C21.288 163.368 21.2061 163.341 21.1188 163.292C21.0314 163.243 20.9877 163.184 20.9877 163.119C20.9877 163.032 21.0205 162.962 21.086 162.913C21.1515 162.864 21.2498 162.81 21.3808 162.756C21.8777 162.561 22.1507 162.117 22.2053 161.43C22.4346 159.01 22.5493 156.867 22.5493 154.999C22.5493 154.485 22.4237 154.101 22.178 153.836C21.9323 153.576 21.5665 153.349 21.0805 153.164C20.7857 153.089 20.6328 152.97 20.6328 152.802C20.6328 152.629 20.7748 152.542 21.0641 152.542L22.3199 152.574C23.6412 152.607 24.3401 152.623 24.4165 152.623C24.5585 152.623 24.6677 152.677 24.7442 152.786L30.832 159.476C30.9412 159.606 31.0176 159.671 31.0613 159.671C31.1487 159.671 31.1923 159.595 31.1923 159.443V157.728C31.1923 156.028 31.1759 154.87 31.1432 154.258C31.1323 153.955 31.0285 153.727 30.832 153.587C30.6354 153.446 30.3078 153.316 29.8601 153.192C29.6089 153.127 29.4779 153.013 29.4779 152.851C29.4779 152.786 29.5107 152.726 29.5871 152.677C29.6581 152.629 29.74 152.602 29.8273 152.602L30.8975 152.618C31.0394 152.629 31.2687 152.634 31.5745 152.634L32.3334 152.618C32.6829 152.596 33.0159 152.585 33.3217 152.585C33.4418 152.585 33.5401 152.607 33.6111 152.65C33.682 152.694 33.7203 152.753 33.7203 152.829C33.7203 153.002 33.5838 153.116 33.3053 153.17C32.9067 153.246 32.6283 153.359 32.4645 153.505C32.3007 153.652 32.2188 153.884 32.2188 154.198C32.2188 154.853 32.1806 156.098 32.1041 157.928C32.0495 158.994 32.0222 159.86 32.0222 160.515C32.0222 160.764 32.0386 161.073 32.0823 161.441C32.1205 161.809 32.1478 162.042 32.1587 162.15C32.2024 162.567 32.2242 162.783 32.2242 162.805C32.2242 163.341 32.0659 163.606 31.7438 163.606C31.5581 163.622 31.3015 163.525 30.9739 163.335Z" fill="#7D7D7D"/>
<path d="M36.8594 163.113C36.8594 163.016 36.8921 162.94 36.9522 162.891C37.0122 162.842 37.1051 162.794 37.2252 162.75C37.5528 162.664 37.8367 162.528 38.0769 162.339C38.3117 162.155 38.4864 161.938 38.5956 161.7C39.6385 159.292 40.583 156.921 41.4184 154.598C41.5494 154.236 41.6532 153.916 41.7296 153.624C41.806 153.337 41.8552 153.191 41.877 153.191C42.352 153.083 42.7615 152.969 43.1164 152.85C43.302 152.785 43.4822 152.699 43.646 152.59C43.8098 152.482 43.9354 152.379 44.0282 152.282C44.1156 152.238 44.1702 152.217 44.192 152.217C44.2466 152.217 44.2903 152.255 44.3231 152.33C44.3995 152.493 44.4596 152.644 44.5032 152.791C45.1857 154.994 45.9392 157.337 46.7636 159.827L47.3751 161.711C47.528 162.215 47.9703 162.561 48.6965 162.756C48.8166 162.799 48.9094 162.842 48.9694 162.886C49.0295 162.929 49.0623 162.999 49.0623 163.097C49.0623 163.173 49.0295 163.232 48.9694 163.275C48.9094 163.319 48.8329 163.34 48.7456 163.34C48.5272 163.34 48.0849 163.33 47.4243 163.308C46.7418 163.286 46.2668 163.275 46.0047 163.275C45.7863 163.275 45.3659 163.286 44.7489 163.308C44.2411 163.34 43.7825 163.357 43.3621 163.357C43.2638 163.357 43.1819 163.335 43.1164 163.292C43.0509 163.248 43.0181 163.189 43.0181 163.113C43.0181 162.929 43.1382 162.81 43.3839 162.75C43.7716 162.675 44.05 162.577 44.2357 162.464C44.4159 162.35 44.5087 162.187 44.5087 161.982C44.5087 161.873 44.4978 161.787 44.4759 161.722L43.9627 159.822C43.9408 159.725 43.9081 159.654 43.8699 159.611C43.8317 159.568 43.7716 159.546 43.6952 159.546H40.8232C40.7359 159.546 40.6758 159.568 40.6431 159.611C40.6103 159.654 40.5776 159.725 40.5448 159.822L40.3155 160.526C40.2827 160.645 40.2336 160.802 40.1681 161.002C40.1026 161.197 40.0479 161.376 40.0043 161.527C39.9606 161.668 39.9387 161.809 39.9387 161.955C39.9387 162.16 40.0206 162.323 40.179 162.436C40.3373 162.55 40.6212 162.658 41.0307 162.756C41.271 162.81 41.3966 162.929 41.3966 163.118C41.3966 163.27 41.2819 163.346 41.0471 163.346C40.796 163.346 40.4683 163.335 40.0752 163.313L39.1853 163.297C38.8795 163.297 38.5738 163.313 38.2789 163.346C38.1807 163.357 38.0332 163.367 37.8312 163.378C37.6347 163.389 37.4545 163.395 37.3016 163.395C37.0013 163.389 36.8594 163.297 36.8594 163.113ZM43.3457 158.599C43.5095 158.599 43.5914 158.561 43.5914 158.485C43.5914 158.474 43.5805 158.415 43.5587 158.306L42.5049 154.691C42.4721 154.582 42.4394 154.528 42.4066 154.528C42.3848 154.528 42.352 154.582 42.3084 154.691L41.0362 158.306C41.0143 158.35 41.0034 158.393 41.0034 158.436C41.0034 158.49 41.0307 158.534 41.0853 158.561C41.1399 158.588 41.2054 158.604 41.2819 158.604H43.3457V158.599Z" fill="#7D7D7D"/>
<path d="M95.1553 163.113C95.1553 163.016 95.1881 162.94 95.2481 162.891C95.3082 162.842 95.401 162.794 95.5211 162.75C95.8487 162.664 96.1326 162.528 96.3729 162.339C96.6076 162.155 96.7823 161.938 96.8915 161.7C97.9344 159.292 98.879 156.921 99.7143 154.598C99.8454 154.236 99.9491 153.916 100.026 153.624C100.102 153.337 100.151 153.191 100.173 153.191C100.648 153.083 101.057 152.969 101.412 152.85C101.598 152.785 101.778 152.699 101.942 152.59C102.106 152.482 102.231 152.379 102.324 152.282C102.412 152.238 102.466 152.217 102.488 152.217C102.543 152.217 102.586 152.255 102.619 152.33C102.695 152.493 102.755 152.644 102.799 152.791C103.482 154.994 104.235 157.337 105.06 159.827L105.671 161.711C105.824 162.215 106.266 162.561 106.992 162.756C107.112 162.799 107.205 162.842 107.265 162.886C107.325 162.929 107.358 162.999 107.358 163.097C107.358 163.173 107.325 163.232 107.265 163.275C107.205 163.319 107.129 163.34 107.042 163.34C106.823 163.34 106.381 163.33 105.72 163.308C105.038 163.286 104.563 163.275 104.301 163.275C104.082 163.275 103.662 163.286 103.045 163.308C102.537 163.34 102.078 163.357 101.658 163.357C101.56 163.357 101.478 163.335 101.412 163.292C101.347 163.248 101.314 163.189 101.314 163.113C101.314 162.929 101.434 162.81 101.68 162.75C102.068 162.675 102.346 162.577 102.532 162.464C102.712 162.35 102.805 162.187 102.805 161.982C102.805 161.873 102.794 161.787 102.772 161.722L102.259 159.822C102.237 159.725 102.204 159.654 102.166 159.611C102.128 159.568 102.068 159.546 101.991 159.546H99.1192C99.0318 159.546 98.9718 159.568 98.939 159.611C98.9062 159.654 98.8735 159.725 98.8407 159.822L98.6114 160.526C98.5787 160.645 98.5295 160.802 98.464 161.002C98.3985 161.197 98.3439 161.376 98.3002 161.527C98.2565 161.668 98.2347 161.809 98.2347 161.955C98.2347 162.16 98.3166 162.323 98.4749 162.436C98.6333 162.55 98.9172 162.658 99.3267 162.756C99.5669 162.81 99.6925 162.929 99.6925 163.118C99.6925 163.27 99.5778 163.346 99.3431 163.346C99.0919 163.346 98.7643 163.335 98.3712 163.313L97.4812 163.297C97.1754 163.297 96.8697 163.313 96.5749 163.346C96.4766 163.357 96.3292 163.367 96.1272 163.378C95.9306 163.389 95.7504 163.395 95.5975 163.395C95.2972 163.389 95.1553 163.297 95.1553 163.113ZM101.636 158.599C101.8 158.599 101.882 158.561 101.882 158.485C101.882 158.474 101.871 158.415 101.849 158.306L100.795 154.691C100.763 154.582 100.73 154.528 100.697 154.528C100.675 154.528 100.643 154.582 100.599 154.691L99.3267 158.306C99.3048 158.35 99.2939 158.393 99.2939 158.436C99.2939 158.49 99.3212 158.534 99.3758 158.561C99.4304 158.588 99.4959 158.604 99.5724 158.604H101.636V158.599Z" fill="#7D7D7D"/>
<path d="M53.7907 163.286C53.7143 163.237 53.6761 163.178 53.6761 163.113C53.6761 162.929 53.7962 162.81 54.0419 162.75C54.4841 162.653 54.7844 162.534 54.9592 162.398C55.1284 162.263 55.2158 162.036 55.2158 161.722V154.885C55.2158 154.317 55.1939 153.954 55.1557 153.797C55.1175 153.64 55.052 153.532 54.9646 153.478C54.8336 153.402 54.6097 153.364 54.2876 153.364H54.0091C53.6597 153.364 53.3157 153.456 52.9881 153.635C52.6605 153.813 52.3876 154.041 52.1801 154.311C51.9944 154.56 51.8252 154.772 51.6668 154.934C51.514 155.096 51.3665 155.178 51.2191 155.178C51.0444 155.178 50.957 155.08 50.957 154.885C50.957 154.745 50.9953 154.598 51.0717 154.441C51.301 153.981 51.4703 153.602 51.5686 153.305C51.6668 153.007 51.7324 152.666 51.7651 152.282C51.7979 152 51.9398 151.854 52.1964 151.854C52.262 151.854 52.3603 151.941 52.4913 152.114C52.5787 152.244 52.666 152.341 52.7534 152.406C52.8516 152.482 53.0318 152.547 53.2884 152.596C53.545 152.644 53.7634 152.671 53.9382 152.671L60.2443 152.655C60.4737 152.655 60.6866 152.628 60.8722 152.579C61.0579 152.531 61.1944 152.476 61.2872 152.422C61.3527 152.39 61.4783 152.292 61.6694 152.13C61.8441 151.957 61.9915 151.87 62.1171 151.87C62.2481 151.87 62.3137 151.957 62.3137 152.13C62.3137 152.184 62.3027 152.287 62.2809 152.439C62.2591 152.514 62.2099 152.688 62.1335 152.964C62.057 153.234 61.997 153.483 61.9588 153.7C61.9205 153.916 61.8987 154.117 61.8987 154.29V154.631C61.8987 154.837 61.8769 154.994 61.8332 155.091C61.7895 155.188 61.7185 155.237 61.6202 155.237C61.511 155.237 61.4182 155.188 61.3472 155.091C61.2763 154.994 61.1998 154.831 61.1234 154.598C60.9814 154.149 60.7849 153.83 60.5392 153.64C60.2935 153.451 59.9386 153.353 59.4745 153.353H58.7975C58.6009 153.353 58.448 153.397 58.3443 153.483C58.2406 153.57 58.1587 153.738 58.1041 153.992C58.0495 154.241 58.0221 154.604 58.0221 155.075V161.7C58.0221 161.992 58.104 162.209 58.2624 162.344C58.4207 162.48 58.7265 162.615 59.1797 162.745C59.2998 162.788 59.3926 162.831 59.4527 162.875C59.5127 162.918 59.5455 162.988 59.5455 163.086C59.5455 163.162 59.5127 163.221 59.4527 163.264C59.3926 163.308 59.3162 163.329 59.2288 163.329C58.9995 163.329 58.5408 163.319 57.8584 163.297L56.5862 163.264C56.3897 163.264 55.9801 163.275 55.3632 163.297C54.8882 163.329 54.4459 163.346 54.0255 163.346C53.9436 163.356 53.8672 163.335 53.7907 163.286Z" fill="#7D7D7D"/>
<path d="M68.1723 162.35C67.3642 161.56 66.9602 160.482 66.9602 159.118V154.539C66.9602 154.236 66.8837 153.954 66.7363 153.695C66.5889 153.44 66.376 153.272 66.103 153.197C65.8082 153.121 65.6553 153.002 65.6553 152.839C65.6553 152.764 65.6989 152.704 65.7808 152.661C65.8627 152.617 65.9665 152.596 66.0866 152.596C66.4688 152.596 66.8674 152.612 67.2769 152.644C67.7846 152.666 68.1395 152.677 68.347 152.677C68.5545 152.677 68.9476 152.666 69.5209 152.644C70.116 152.623 70.531 152.612 70.7767 152.612C71.0606 152.612 71.208 152.693 71.208 152.856C71.208 152.942 71.1643 153.012 71.077 153.067C70.9896 153.121 70.875 153.175 70.7385 153.224C70.602 153.272 70.4873 153.321 70.3999 153.364C69.9905 153.559 69.7884 153.987 69.7884 154.642V158.864C69.7884 159.887 70.0232 160.666 70.4982 161.197C70.9732 161.727 71.5684 161.993 72.2945 161.993C73.2718 161.993 74.0035 161.716 74.4785 161.159C74.959 160.601 75.1992 159.735 75.1992 158.555C75.1992 158.095 75.2047 157.743 75.2156 157.494L75.232 156.266C75.232 155.919 75.2265 155.665 75.2156 155.513C75.2047 154.988 75.1665 154.588 75.1064 154.312C75.0463 154.036 74.9535 153.819 74.8334 153.673C74.7133 153.527 74.5331 153.391 74.2874 153.272C74.211 153.229 74.1127 153.186 73.9925 153.148C73.8724 153.11 73.7796 153.067 73.7141 153.023C73.6486 152.98 73.6158 152.926 73.6158 152.861C73.6158 152.699 73.7796 152.617 74.1127 152.617C74.4512 152.617 74.8006 152.628 75.1501 152.65L75.778 152.666C75.9745 152.666 76.2202 152.655 76.5041 152.634C76.788 152.612 77.0556 152.601 77.2958 152.601C77.5688 152.601 77.7108 152.682 77.7108 152.845C77.7108 152.996 77.5688 153.115 77.2794 153.202C76.9027 153.31 76.6406 153.478 76.4877 153.711C76.3349 153.938 76.2475 154.268 76.2257 154.691C76.1711 156.011 76.1438 157.44 76.1438 158.978C76.1438 159.86 75.9472 160.65 75.5486 161.343C75.1501 162.036 74.615 162.577 73.938 162.961C73.2609 163.346 72.5129 163.541 71.683 163.541C70.1488 163.541 68.9804 163.146 68.1723 162.35Z" fill="#7D7D7D"/>
<path d="M89.8159 163.227C89.3299 162.946 88.8931 162.54 88.4945 162.014C88.096 161.479 87.7465 160.97 87.4408 160.477C87.135 159.985 86.8347 159.433 86.5508 158.81C86.4416 158.572 86.3106 158.409 86.1523 158.317C86.0321 158.242 85.9011 158.204 85.7537 158.204C85.6445 158.204 85.5899 158.312 85.5899 158.529V161.701C85.5899 162.025 85.6827 162.258 85.8629 162.388C86.0431 162.518 86.3816 162.637 86.8784 162.745C86.9876 162.767 87.0695 162.805 87.1187 162.859C87.1678 162.913 87.1951 162.989 87.1951 163.086C87.1951 163.249 87.1077 163.33 86.933 163.33L85.4971 163.297L84.1594 163.265C83.9628 163.265 83.5642 163.276 82.9691 163.297C82.5268 163.33 82.101 163.346 81.6806 163.346C81.615 163.346 81.5495 163.319 81.484 163.27C81.4185 163.222 81.3857 163.162 81.3857 163.097C81.3857 162.913 81.4895 162.794 81.697 162.734C82.1283 162.648 82.4122 162.534 82.5651 162.399C82.7125 162.263 82.7889 162.031 82.7889 161.706V154.296C82.7889 153.949 82.7234 153.7 82.5924 153.549C82.4613 153.403 82.1938 153.283 81.8007 153.197C81.5714 153.143 81.4513 153.029 81.4513 152.856C81.4513 152.78 81.484 152.715 81.5441 152.666C81.6041 152.618 81.686 152.591 81.7843 152.591C82.1829 152.591 82.6197 152.612 83.1056 152.656C83.5479 152.699 83.8918 152.72 84.143 152.72C84.3505 152.72 84.6562 152.699 85.0493 152.656C85.5353 152.591 86.0212 152.558 86.5181 152.558C87.8394 152.558 88.8495 152.775 89.5483 153.213C90.2472 153.652 90.5966 154.301 90.5966 155.178C90.5966 155.844 90.3892 156.38 89.9687 156.791C89.5483 157.202 89.0405 157.489 88.4345 157.668C88.4017 157.679 88.3854 157.706 88.3854 157.749C88.3854 157.792 88.3963 157.83 88.4181 157.863C88.9696 158.68 89.4719 159.389 89.936 159.99C90.4001 160.591 90.8478 161.1 91.2901 161.511C91.6286 161.825 91.9834 162.031 92.3547 162.117C92.726 162.204 93.1682 162.247 93.6815 162.247C93.8453 162.247 93.9272 162.35 93.9272 162.556C93.9272 163.287 93.2229 163.655 91.8142 163.655C90.9624 163.655 90.2963 163.508 89.8159 163.227ZM87.4626 157.094C87.752 156.726 87.8994 156.217 87.8994 155.573C87.8994 154.81 87.7575 154.247 87.4681 153.879C87.1842 153.511 86.7692 153.332 86.2287 153.332C85.9994 153.332 85.8301 153.435 85.7318 153.635C85.6335 153.836 85.5844 154.236 85.5844 154.837V157.029C85.5844 157.446 85.7755 157.652 86.1632 157.652C86.7365 157.646 87.1733 157.462 87.4626 157.094Z" fill="#7D7D7D"/>
<path d="M110.377 163.308C110.323 163.254 110.296 163.194 110.296 163.129C110.296 163.064 110.328 162.999 110.388 162.935C110.448 162.87 110.53 162.821 110.629 162.788C111.016 162.68 111.273 162.561 111.415 162.431C111.551 162.301 111.622 162.079 111.622 161.76V154.295C111.622 153.949 111.551 153.7 111.409 153.559C111.267 153.419 110.973 153.299 110.536 153.197C110.328 153.142 110.225 153.023 110.225 152.839C110.225 152.774 110.257 152.715 110.323 152.666C110.388 152.617 110.454 152.59 110.519 152.59C110.929 152.59 111.355 152.607 111.808 152.639C112.403 152.661 112.796 152.672 112.998 152.672C113.206 152.672 113.621 152.661 114.238 152.639C114.876 152.617 115.313 152.607 115.559 152.607C115.734 152.607 115.821 152.688 115.821 152.85C115.821 152.948 115.794 153.023 115.745 153.072C115.695 153.121 115.614 153.164 115.504 153.197C115.051 153.327 114.762 153.462 114.631 153.608C114.5 153.749 114.434 153.987 114.434 154.312V161.592C114.434 161.884 114.5 162.101 114.625 162.231C114.751 162.361 114.958 162.426 115.242 162.426H116.842C117.262 162.426 117.639 162.274 117.983 161.966C118.289 161.684 118.589 161.24 118.873 160.639C118.982 160.412 119.07 160.266 119.13 160.206C119.19 160.147 119.261 160.114 119.337 160.114C119.414 160.114 119.474 160.152 119.512 160.223C119.55 160.293 119.572 160.374 119.572 160.461C119.572 160.493 119.561 160.547 119.545 160.618C119.528 160.688 119.512 160.764 119.501 160.84C119.337 161.419 119.223 161.841 119.152 162.117C119.086 162.388 119.037 162.713 119.004 163.081C118.982 163.286 118.889 163.389 118.726 163.389L117.29 163.373C115.619 163.33 114.188 163.308 112.998 163.308C112.627 163.308 112.223 163.324 111.792 163.357C111.218 163.378 110.831 163.389 110.618 163.389C110.509 163.389 110.432 163.362 110.377 163.308Z" fill="#7D7D7D"/>
<path d="M23.6187 171.081C23.9135 171.249 24.1428 171.482 24.3121 171.779C24.4814 172.077 24.5687 172.418 24.5687 172.792C24.5687 173.17 24.4814 173.506 24.3121 173.809C24.1428 174.112 23.9081 174.345 23.6187 174.507C23.3239 174.675 22.9963 174.756 22.6359 174.756C22.2756 174.756 21.948 174.675 21.6531 174.507C21.3583 174.34 21.129 174.107 20.9598 173.809C20.7905 173.511 20.7031 173.17 20.7031 172.792C20.7031 172.413 20.7905 172.077 20.9598 171.779C21.129 171.482 21.3638 171.249 21.6531 171.081C21.948 170.913 22.2756 170.832 22.6359 170.832C22.9963 170.832 23.3239 170.913 23.6187 171.081ZM22.0408 171.687C21.8715 171.79 21.7351 171.936 21.6368 172.126C21.5385 172.315 21.4893 172.537 21.4893 172.792C21.4893 173.046 21.5385 173.268 21.6368 173.457C21.7351 173.647 21.8661 173.793 22.0408 173.896C22.2101 173.999 22.4121 174.047 22.6359 174.047C22.8598 174.047 23.0618 173.999 23.231 173.896C23.4003 173.793 23.5368 173.647 23.6351 173.457C23.7334 173.268 23.7825 173.046 23.7825 172.792C23.7825 172.537 23.7334 172.315 23.6351 172.126C23.5368 171.936 23.4058 171.79 23.231 171.687C23.0618 171.584 22.8598 171.536 22.6359 171.536C22.4066 171.536 22.2101 171.584 22.0408 171.687Z" fill="#7D7D7D"/>
<path d="M31.0011 174.719L30.0947 173.225H29.7562V174.719H28.9863V170.881H30.4605C30.9082 170.881 31.2522 170.989 31.487 171.206C31.7218 171.422 31.8419 171.709 31.8419 172.066C31.8419 172.359 31.76 172.597 31.5962 172.792C31.4324 172.986 31.1976 173.116 30.8919 173.181L31.8583 174.713H31.0011V174.719ZM29.7617 172.7H30.395C30.8373 172.7 31.0557 172.505 31.0557 172.12C31.0557 171.936 31.0011 171.79 30.8919 171.687C30.7827 171.585 30.6189 171.53 30.3895 171.53H29.7562V172.7H29.7617Z" fill="#7D7D7D"/>
<path d="M39.163 171.19C39.4742 171.417 39.6708 171.731 39.7582 172.121H38.9446C38.8682 171.947 38.748 171.807 38.5788 171.704C38.415 171.601 38.2184 171.547 37.9891 171.547C37.7652 171.547 37.5687 171.596 37.3995 171.699C37.2302 171.801 37.0937 171.947 37.0009 172.132C36.908 172.321 36.8589 172.543 36.8589 172.792C36.8589 173.192 36.9681 173.506 37.1865 173.734C37.4049 173.956 37.6997 174.069 38.0765 174.069C38.3549 174.069 38.5952 173.988 38.7917 173.826C38.9938 173.663 39.1193 173.436 39.1794 173.149H37.869V172.602H39.8237V173.339C39.7691 173.593 39.6599 173.826 39.5015 174.037C39.3432 174.253 39.1357 174.421 38.8791 174.551C38.6225 174.681 38.3276 174.746 37.9946 174.746C37.6124 174.746 37.2793 174.665 36.99 174.497C36.7006 174.335 36.4767 174.102 36.3184 173.81C36.16 173.512 36.0781 173.176 36.0781 172.797C36.0781 172.418 36.16 172.077 36.3184 171.785C36.4767 171.493 36.7006 171.26 36.99 171.092C37.2793 170.924 37.6124 170.843 37.9946 170.843C38.4587 170.849 38.8518 170.962 39.163 171.19Z" fill="#7D7D7D"/>
<path d="M46.5996 173.95H45.049L44.776 174.724H43.957L45.3821 170.929H46.2666L47.6862 174.724H46.8672L46.5996 173.95ZM46.3922 173.365L45.8243 171.747L45.2565 173.365H46.3922Z" fill="#7D7D7D"/>
<path d="M55.21 174.719H54.4401L52.7093 172.11V174.719H51.9395V170.881H52.7093L54.4401 173.512V170.881H55.21V174.719Z" fill="#7D7D7D"/>
<path d="M60.5223 170.886V174.724H59.7471V170.886H60.5223Z" fill="#7D7D7D"/>
<path d="M68.0079 171.216C68.3246 171.465 68.5375 171.795 68.6358 172.223H67.8223C67.7404 172.017 67.6094 171.855 67.4292 171.736C67.2545 171.617 67.0415 171.557 66.7903 171.557C66.5883 171.557 66.4027 171.606 66.2389 171.709C66.0751 171.812 65.9441 171.958 65.8567 172.142C65.7639 172.331 65.7202 172.553 65.7202 172.802C65.7202 173.051 65.7639 173.273 65.8567 173.457C65.9495 173.647 66.0751 173.793 66.2389 173.89C66.4027 173.993 66.5883 174.042 66.7903 174.042C67.0415 174.042 67.249 173.982 67.4292 173.863C67.6039 173.744 67.7349 173.582 67.8223 173.376H68.6358C68.5321 173.798 68.3246 174.134 68.0079 174.383C67.6913 174.632 67.2927 174.751 66.8067 174.751C66.4355 174.751 66.1133 174.67 65.8294 174.502C65.5455 174.34 65.3271 174.107 65.1742 173.809C65.0213 173.511 64.9395 173.176 64.9395 172.797C64.9395 172.418 65.0159 172.077 65.1742 171.779C65.3271 171.482 65.5455 171.249 65.8294 171.086C66.1133 170.924 66.4355 170.837 66.8122 170.837C67.2872 170.848 67.6913 170.967 68.0079 171.216Z" fill="#7D7D7D"/>
<path d="M80.806 173.073C80.9479 173.246 81.0189 173.446 81.0189 173.679C81.0189 174.004 80.9097 174.258 80.6913 174.442C80.4729 174.626 80.1562 174.724 79.7468 174.724H78.0869V170.886H79.714C80.1071 170.886 80.4074 170.972 80.6149 171.14C80.8223 171.308 80.9315 171.552 80.9315 171.855C80.9315 172.093 80.866 172.288 80.7405 172.439C80.6149 172.591 80.4511 172.688 80.2436 172.737C80.4784 172.791 80.664 172.899 80.806 173.073ZM78.8568 172.493H79.5502C79.7413 172.493 79.8887 172.45 79.9925 172.363C80.0907 172.277 80.1453 172.158 80.1453 171.995C80.1453 171.838 80.0962 171.714 79.9979 171.627C79.8996 171.541 79.7468 171.497 79.5447 171.497H78.8622V172.493H78.8568ZM80.0634 173.96C80.1726 173.874 80.2272 173.744 80.2272 173.571C80.2272 173.403 80.1726 173.267 80.058 173.175C79.9488 173.083 79.7904 173.035 79.583 173.035H78.8568V174.09H79.5884C79.7959 174.096 79.9542 174.052 80.0634 173.96Z" fill="#7D7D7D"/>
<path d="M86.1683 171.493V172.489H87.5387V173.073H86.1683V174.107H87.7025V174.719H85.3984V170.881H87.7025V171.487H86.1683V171.493Z" fill="#7D7D7D"/>
<path d="M94.461 173.95H92.9103L92.6373 174.724H91.8184L93.2434 170.929H94.1279L95.5475 174.724H94.7285L94.461 173.95ZM94.2535 173.365L93.6856 171.747L93.1178 173.365H94.2535Z" fill="#7D7D7D"/>
<path d="M100.544 170.886V173.132C100.544 173.435 100.61 173.657 100.746 173.809C100.877 173.96 101.074 174.036 101.325 174.036C101.576 174.036 101.762 173.96 101.898 173.809C102.029 173.657 102.1 173.435 102.1 173.132V170.886H102.87V173.132C102.87 173.489 102.804 173.787 102.668 174.031C102.537 174.274 102.351 174.458 102.117 174.577C101.882 174.696 101.614 174.756 101.314 174.756C100.85 174.756 100.479 174.621 100.2 174.345C99.9216 174.069 99.7852 173.668 99.7852 173.132V170.886H100.544Z" fill="#7D7D7D"/>
<path d="M110.012 170.886V171.492H108.942V174.718H108.166V171.492H107.102V170.886H110.012Z" fill="#7D7D7D"/>
<path d="M117.393 170.886L116.082 173.381V174.724H115.307V173.381L113.991 170.886H114.881L115.706 172.564L116.53 170.886H117.393Z" fill="#7D7D7D"/>
<path d="M84.3066 194.806C86.6107 193.139 87.7354 191.461 87.7409 189.669C87.7409 189.409 87.5498 189.193 87.2877 189.16C85.8791 188.987 84.5032 189.582 83.4712 190.118C79.4418 192.213 76.1822 195.39 73.0373 198.476C73.0319 198.481 73.0209 198.481 73.0155 198.492C71.514 199.975 69.8651 201.177 68.178 202.162C72.2566 198.054 74.8719 191.888 74.85 187.617C74.8446 187.114 74.779 186.492 74.2713 186.113C74.0146 185.918 73.687 185.837 73.3158 185.858C73.3103 185.858 73.3049 185.853 73.2994 185.853C73.283 185.853 73.2666 185.864 73.2503 185.864C73.1301 185.874 73.01 185.891 72.8845 185.923C71.2629 186.34 70.3183 187.861 69.614 189.29C67.2553 194.07 65.59 199.196 63.9903 204.159C61.7189 205.036 59.5295 205.588 57.6731 205.929C57.0835 206.038 56.4938 206.13 55.9041 206.216C57.2527 205.534 58.4866 204.652 59.2292 203.916C60.6051 202.557 61.6861 200.771 62.6362 198.303C63.2149 196.798 63.9466 194.53 63.6353 192.262C63.5207 191.423 63.133 190.887 62.5488 190.762C62.5434 190.762 62.5434 190.762 62.5379 190.762C62.0738 190.665 61.6698 190.865 61.3367 191.076C58.4703 192.879 56.7777 195.975 55.6202 198.476C55.3254 199.109 55.0469 199.748 54.7684 200.387C53.8403 202.498 52.8848 204.684 51.487 206.519C51.4597 206.552 51.4488 206.595 51.4324 206.633C48.0145 206.779 44.3891 206.568 40.2396 205.994C23.8653 202.822 10.4503 191.688 4.35154 176.212C2.14573 170.626 1.02647 164.721 1.02647 158.669C1.02647 158.387 0.797149 158.16 0.513234 158.16C0.229318 158.16 0 158.387 0 158.669C0 164.851 1.14111 170.881 3.39605 176.586C9.62036 192.386 23.3248 203.753 40.0704 207.001C43.4446 207.467 46.4803 207.699 49.3358 207.699C51.4543 207.699 53.469 207.564 55.4509 207.31C55.8659 207.829 56.2808 208.354 56.6958 208.879C59.7206 212.712 62.8546 216.68 66.8895 219.592C67.0533 219.711 67.43 219.981 67.8613 219.981C67.976 219.981 68.1016 219.96 68.2217 219.911C68.2272 219.911 68.2326 219.911 68.2381 219.906C68.2435 219.906 68.2435 219.9 68.249 219.9C68.2544 219.895 68.2599 219.895 68.2708 219.895C68.5766 219.76 68.9424 219.424 68.9478 218.579C68.9533 216.257 67.8886 213.87 65.9503 211.862C64.2414 210.092 62.0629 208.798 59.9608 207.667C59.4094 207.369 58.8579 207.082 58.2901 206.85C60.8508 206.352 63.2477 205.61 65.459 204.663C65.4644 204.668 65.4699 204.674 65.4753 204.679C68.1507 206.265 71.2574 207.494 75.2431 208.544C77.0668 209.026 79.0869 209.453 81.1126 209.453C82.3083 209.453 83.504 209.302 84.667 208.923H84.6724H84.6779C84.6833 208.923 84.6833 208.917 84.6833 208.917C84.7598 208.89 84.8307 208.842 84.8853 208.782C84.8908 208.777 84.8963 208.771 84.9017 208.766C84.94 208.723 84.9727 208.674 84.9945 208.614C85 208.598 85 208.576 85.0055 208.56C85.0109 208.549 85.0164 208.538 85.0218 208.528C85.0218 208.511 85.0164 208.501 85.0164 208.484C85.0218 208.419 85.0164 208.36 85 208.295C84.9946 208.279 84.9945 208.262 84.9891 208.241C84.9563 208.165 84.9126 208.1 84.8471 208.046C84.8417 208.04 84.8417 208.035 84.8362 208.035C80.7031 204.712 73.8836 202.882 68.0797 203.375C70.0999 202.259 71.918 200.95 73.4905 199.445C75.5707 198.936 80.572 197.507 84.3066 194.806ZM62.6744 193.301C62.6962 194.638 62.3741 196.11 61.6643 197.951C60.7689 200.284 59.7588 201.951 58.4921 203.207C57.8588 203.835 56.8541 204.56 55.7622 205.15C60.5396 201.366 62.1393 196.132 62.6744 193.301ZM61.6042 193.447C61.0637 196.105 59.5622 200.652 55.4618 204.078C56.2917 203.023 57.1763 201.675 57.9952 199.986C59.3493 197.193 60.6815 194.919 61.6042 193.447ZM55.6966 200.798C55.9751 200.165 56.2535 199.531 56.5429 198.909C57.4984 196.846 58.8306 194.362 60.8945 192.657C59.9499 194.151 58.5249 196.554 57.0725 199.542C56.1607 201.426 55.1506 202.871 54.2497 203.937C54.7739 202.904 55.238 201.843 55.6966 200.798ZM83.7006 193.983C81.8769 195.298 79.3162 196.538 76.4989 197.501L86.3377 191.174C85.8845 192.105 85.0164 193.036 83.7006 193.983ZM83.9463 191.028C84.5359 190.724 85.1857 190.427 85.8627 190.27L77.5472 195.618C79.5182 193.859 81.6039 192.245 83.9463 191.028ZM72.3603 188.981C71.383 193.377 68.9042 197.588 66.9113 200.446L72.3603 188.981ZM67.5064 201.41C69.9143 198.043 73.1411 192.608 73.7198 187.027C73.8181 187.201 73.829 187.515 73.829 187.634C73.8454 191.672 71.3666 197.507 67.5064 201.41ZM70.5312 189.745C70.8752 189.046 71.2847 188.327 71.7925 187.78L67.7303 196.321C68.5657 194.086 69.4775 191.877 70.5312 189.745ZM59.2565 210.465C62.1011 213.167 64.3615 215.716 65.8193 217.454C63.3842 215.402 61.2657 212.961 59.2565 210.465ZM59.9117 209.681C62.3905 211.521 65.5026 214.244 66.8621 217.118C65.3989 215.343 62.9856 212.593 59.9117 209.681ZM67.3699 215.884C66.1415 213.751 64.154 211.781 62.2376 210.189C63.346 210.909 64.3287 211.673 65.1914 212.566C66.1851 213.594 66.9113 214.725 67.3699 215.884ZM75.4943 207.553C72.9827 206.893 70.8315 206.162 68.9315 205.312C72.0873 205.767 77.6619 206.72 82.6249 208.322C80.228 208.641 77.7165 208.138 75.4943 207.553ZM80.6867 206.682C76.3788 205.48 71.9617 204.728 69.2263 204.327C73.0701 204.192 77.2633 205.058 80.6867 206.682Z" fill="#7D7D7D"/>
<path d="M2.8228 37.9501L4.20416 38.329L3.99668 39.0652L0.267578 38.0421L0.644311 36.6943C0.764428 36.2613 0.960993 35.9582 1.23399 35.7958C1.50698 35.6334 1.82365 35.6009 2.18947 35.6984C2.54436 35.7958 2.79552 35.9907 2.94293 36.2721C3.09035 36.559 3.1067 36.9109 2.98659 37.3331L2.8228 37.9501ZM1.98199 36.4508C1.79635 36.3966 1.63799 36.4129 1.51241 36.4832C1.38684 36.559 1.28858 36.7106 1.22852 36.9379L1.08109 37.4684L2.22766 37.7823L2.37508 37.2519C2.48974 36.8242 2.36418 36.5536 1.98199 36.4508Z" fill="#7D7D7D"/>
<path d="M2.66907 30.8811L4.7493 31.7796C5.02776 31.8987 5.26253 31.9257 5.45362 31.8662C5.64472 31.8067 5.79213 31.6605 5.89041 31.4332C5.98869 31.2058 5.99414 31.0056 5.91224 30.8215C5.82488 30.6375 5.6447 30.4913 5.36625 30.3668L3.28601 29.4683L3.59177 28.77L5.67203 29.6686C5.99963 29.8093 6.25076 29.9879 6.42547 30.2099C6.60019 30.4318 6.69302 30.67 6.7094 30.9298C6.72578 31.1896 6.67666 31.4602 6.55654 31.7309C6.3709 32.1531 6.0979 32.4346 5.73209 32.5753C5.36627 32.716 4.9404 32.6836 4.44355 32.4725L2.36328 31.5739L2.66907 30.8811Z" fill="#7D7D7D"/>
<path d="M9.93753 25.3326L8.17941 25.3109L7.99923 25.5978L9.28233 26.3827L8.8783 27.0322L5.58594 25.024L6.36124 23.7791C6.59602 23.4002 6.86902 23.1674 7.18023 23.0808C7.49145 22.9942 7.79721 23.0483 8.10297 23.2324C8.35412 23.3839 8.51794 23.5788 8.59984 23.8224C8.68174 24.0605 8.67082 24.3312 8.56708 24.6235L10.3907 24.6127L9.93753 25.3326ZM7.55151 25.3218L7.88459 24.7859C8.11391 24.4124 8.06475 24.1255 7.73169 23.9198C7.57336 23.8224 7.42047 23.7953 7.27851 23.8278C7.13109 23.8657 7.00006 23.9794 6.87994 24.1688L6.54689 24.7047L7.55151 25.3218Z" fill="#7D7D7D"/>
<path d="M10.4453 19.1126L11.2206 19.7406L12.0888 18.6904L12.5474 19.0639L11.6793 20.1141L12.4873 20.769L13.4592 19.589L13.9396 19.9787L12.4819 21.7488L9.48438 19.3238L10.9422 17.5537L11.4172 17.938L10.4453 19.1126Z" fill="#7D7D7D"/>
<path d="M22.1506 12.5098L21.5391 12.9807L18.5579 11.9739L20.1686 14.0363L19.5571 14.5072L17.1875 11.4759L17.799 11.005L20.791 12.028L19.164 9.94945L19.7755 9.47852L22.1506 12.5098Z" fill="#7D7D7D"/>
<path d="M26.9502 8.65536L25.5961 9.40776L25.7381 10.2143L25.0228 10.6094L24.4004 6.60926L25.1702 6.18164L28.2769 8.80692L27.5617 9.20207L26.9502 8.65536ZM26.4806 8.24939L25.1866 7.11267L25.4869 8.80151L26.4806 8.24939Z" fill="#7D7D7D"/>
<path d="M32.4864 2.86328L32.7103 3.43164L31.7166 3.81596L32.8959 6.82556L32.1752 7.10162L30.9959 4.09202L30.0022 4.47093L29.7783 3.90257L32.4864 2.86328Z" fill="#7D7D7D"/>
<path d="M37.0291 1.51046L37.5532 3.69734C37.6242 3.98965 37.7389 4.19535 37.9027 4.30902C38.0665 4.4227 38.2739 4.45518 38.5196 4.39563C38.7599 4.3415 38.9291 4.22241 39.0219 4.04378C39.1148 3.86515 39.1311 3.63239 39.0602 3.34008L38.5415 1.1532L39.2895 0.97998L39.8136 3.16686C39.8955 3.5133 39.901 3.82185 39.83 4.08709C39.7591 4.35774 39.6171 4.57426 39.4151 4.74207C39.2131 4.90987 38.9673 5.03437 38.678 5.09933C38.2248 5.20218 37.8317 5.15346 37.4986 4.95318C37.1656 4.74748 36.9363 4.3848 36.8107 3.87056L36.292 1.68368L37.0291 1.51046Z" fill="#7D7D7D"/>
<path d="M45.8685 3.95702L44.8311 2.54965L44.4925 2.58213L44.629 4.07069L43.8592 4.14105L43.5098 0.319536L44.9785 0.189623C45.4262 0.151733 45.7756 0.227514 46.0323 0.422379C46.2889 0.617244 46.4308 0.893305 46.4636 1.24514C46.4909 1.53203 46.4308 1.78102 46.2889 1.99212C46.1469 2.20323 45.9231 2.35479 45.6228 2.4414L46.7256 3.88123L45.8685 3.95702ZM44.4434 2.05708L45.0768 2.00295C45.519 1.96506 45.721 1.74855 45.6828 1.36423C45.6664 1.18019 45.6009 1.03945 45.4808 0.947432C45.3661 0.855413 45.1914 0.817524 44.9676 0.839176L44.3342 0.898718L44.4434 2.05708Z" fill="#7D7D7D"/>
<path d="M51.1808 0.633322L51.1371 1.62932L52.5075 1.68345L52.4857 2.26806L51.1153 2.21393L51.0716 3.24781L52.6058 3.31277L52.5785 3.92444L50.2744 3.83242L50.4328 0L52.7368 0.0920203L52.7095 0.69828L51.1808 0.633322Z" fill="#7D7D7D"/>
<path d="M96.0238 34.3781C95.8109 34.3781 95.6089 34.2481 95.5379 34.0316C90.422 19.2543 78.3392 7.81673 63.2207 3.44307C62.9477 3.36187 62.7893 3.0804 62.8712 2.80975C62.9531 2.53911 63.2371 2.38755 63.5101 2.46333C78.9507 6.92901 91.2846 18.6101 96.5098 33.7014C96.6026 33.9667 96.4606 34.259 96.1931 34.351C96.1385 34.3672 96.0784 34.3781 96.0238 34.3781Z" fill="#7D7D7D"/>
<path d="M23.3301 35.7903C23.2319 35.9527 23.0844 36.088 22.8933 36.1855C22.7022 36.2829 22.462 36.337 22.189 36.337C21.916 36.337 21.6703 36.2883 21.4574 36.1963C21.239 36.1043 21.0697 35.969 20.9387 35.7957C20.8076 35.6225 20.7367 35.4168 20.7148 35.1895H21.5393C21.5557 35.3465 21.6212 35.4764 21.7304 35.5792C21.8396 35.6821 21.9815 35.7362 22.1617 35.7362C22.32 35.7362 22.4456 35.6929 22.533 35.6063C22.6203 35.5197 22.664 35.4114 22.664 35.2761C22.664 35.157 22.6313 35.0596 22.5603 34.9784C22.4893 34.9026 22.4019 34.8377 22.2982 34.7889C22.1945 34.7402 22.0471 34.6861 21.8614 34.6266C21.6212 34.5454 21.4246 34.4696 21.2717 34.3884C21.1189 34.3126 20.9878 34.1989 20.8786 34.0474C20.7694 33.9012 20.7148 33.7064 20.7148 33.4682C20.7148 33.138 20.8349 32.8782 21.0752 32.6887C21.3154 32.4993 21.6321 32.4019 22.0252 32.4019C22.4347 32.4019 22.7623 32.4993 23.0026 32.6942C23.2482 32.889 23.3848 33.1488 23.4175 33.479H22.5821C22.5603 33.3437 22.5002 33.23 22.4074 33.138C22.3146 33.0514 22.1835 33.0027 22.0197 33.0027C21.8778 33.0027 21.7632 33.0406 21.6758 33.1164C21.5884 33.1921 21.5447 33.3004 21.5447 33.4411C21.5447 33.5548 21.5775 33.6468 21.6485 33.7226C21.714 33.7984 21.8014 33.8579 21.9051 33.9066C22.0088 33.9554 22.1508 34.0041 22.331 34.0636C22.5821 34.1502 22.7787 34.2314 22.937 34.3072C23.0899 34.383 23.2264 34.4966 23.3356 34.6482C23.4448 34.7998 23.4994 35 23.4994 35.2436C23.483 35.4439 23.4284 35.6225 23.3301 35.7903Z" fill="#7D7D7D"/>
<path d="M30.7338 32.4614V33.0677H29.6636V36.2938H28.8938V33.0677H27.8291V32.4614H30.7338Z" fill="#7D7D7D"/>
<path d="M38.3331 32.4614L37.0228 34.9568V36.2992H36.2475V34.9568L34.9316 32.4614H35.8216L36.646 34.1394L37.4705 32.4614H38.3331Z" fill="#7D7D7D"/>
<path d="M43.5804 35.7092H44.8799V36.2938H42.8105V32.4561H43.5858V35.7092H43.5804Z" fill="#7D7D7D"/>
<path d="M50.1663 33.0677V34.0637H51.5368V34.6483H50.1663V35.6822H51.7006V36.2938H49.3965V32.4561H51.7006V33.0623H50.1663V33.0677Z" fill="#7D7D7D"/>
<path d="M30.9739 54.3354C30.6518 54.1459 30.3242 53.8536 29.9911 53.4585L23.5703 46.7031C23.4938 46.5949 23.4337 46.5408 23.3901 46.5408C23.3136 46.5408 23.2754 46.6436 23.2754 46.8493C23.2754 47.645 23.2918 48.5436 23.3246 49.5504C23.3355 49.9455 23.3464 50.3894 23.3573 50.8928C23.3682 51.3962 23.3737 51.9158 23.3737 52.4625C23.3737 52.8252 23.4884 53.1012 23.7122 53.2961C23.9361 53.491 24.2801 53.6479 24.7442 53.7562C25.039 53.832 25.1919 53.9457 25.1919 54.1026C25.1919 54.1784 25.1482 54.238 25.0663 54.2813C24.9844 54.3246 24.8916 54.3462 24.7933 54.3462C24.4384 54.3462 24.078 54.3354 23.7068 54.3137L22.8987 54.2975C22.582 54.2975 22.2653 54.3029 21.9596 54.3246C21.6538 54.3408 21.4518 54.357 21.3645 54.3679C21.288 54.3679 21.2061 54.3408 21.1188 54.2921C21.0314 54.2434 20.9877 54.1838 20.9877 54.1189C20.9877 54.0323 21.0205 53.9619 21.086 53.9132C21.1515 53.8645 21.2498 53.8103 21.3808 53.7562C21.8777 53.5613 22.1507 53.1175 22.2053 52.43C22.4346 50.0105 22.5493 47.8669 22.5493 45.9995C22.5493 45.4852 22.4237 45.1009 22.178 44.8357C21.9323 44.5759 21.5665 44.3485 21.0805 44.1645C20.7857 44.0887 20.6328 43.9696 20.6328 43.8018C20.6328 43.6286 20.7748 43.542 21.0641 43.542L22.3199 43.5745C23.6412 43.6069 24.3401 43.6232 24.4165 43.6232C24.5585 43.6232 24.6677 43.6773 24.7442 43.7856L30.832 50.476C30.9412 50.6059 31.0176 50.6708 31.0613 50.6708C31.1487 50.6708 31.1923 50.5951 31.1923 50.4435V48.7276C31.1923 47.0279 31.1759 45.8696 31.1432 45.2579C31.1323 44.9548 31.0285 44.7274 30.832 44.5867C30.6354 44.4459 30.3078 44.316 29.8601 44.1915C29.6089 44.1266 29.4779 44.0129 29.4779 43.8505C29.4779 43.7856 29.5107 43.726 29.5871 43.6773C29.6581 43.6286 29.74 43.6015 29.8273 43.6015L30.8975 43.6178C31.0394 43.6286 31.2687 43.634 31.5745 43.634L32.3334 43.6178C32.6829 43.5961 33.0159 43.5853 33.3217 43.5853C33.4418 43.5853 33.5401 43.6069 33.6111 43.6502C33.682 43.6936 33.7203 43.7531 33.7203 43.8289C33.7203 44.0021 33.5838 44.1158 33.3053 44.1699C32.9067 44.2457 32.6283 44.3593 32.4645 44.5055C32.3007 44.6516 32.2188 44.8844 32.2188 45.1984C32.2188 45.8533 32.1806 47.0983 32.1041 48.9279C32.0495 49.9942 32.0222 50.8603 32.0222 51.5152C32.0222 51.7642 32.0386 52.0728 32.0823 52.4409C32.1205 52.8089 32.1478 53.0417 32.1587 53.15C32.2024 53.5668 32.2242 53.7833 32.2242 53.8049C32.2242 54.3408 32.0659 54.606 31.7438 54.606C31.5581 54.6223 31.3015 54.5248 30.9739 54.3354Z" fill="#7D7D7D"/>
<path d="M36.8594 54.1131C36.8594 54.0156 36.8921 53.9398 36.9522 53.8911C37.0122 53.8424 37.1051 53.7937 37.2252 53.7504C37.5528 53.6638 37.8367 53.5285 38.0769 53.339C38.3117 53.155 38.4864 52.9384 38.5956 52.7003C39.6385 50.2915 40.583 47.9207 41.4184 45.5985C41.5494 45.2358 41.6532 44.9165 41.7296 44.6242C41.806 44.3373 41.8552 44.1911 41.877 44.1911C42.352 44.0829 42.7615 43.9692 43.1164 43.8501C43.302 43.7852 43.4822 43.6986 43.646 43.5903C43.8098 43.482 43.9354 43.3792 44.0282 43.2818C44.1156 43.2385 44.1702 43.2168 44.192 43.2168C44.2466 43.2168 44.2903 43.2547 44.3231 43.3305C44.3995 43.4929 44.4596 43.6444 44.5032 43.7906C45.1857 45.9936 45.9392 48.3374 46.7636 50.8274L47.3751 52.7111C47.528 53.2145 47.9703 53.5609 48.6965 53.7558C48.8166 53.7991 48.9094 53.8424 48.9694 53.8857C49.0295 53.929 49.0623 53.9994 49.0623 54.0968C49.0623 54.1726 49.0295 54.2321 48.9694 54.2754C48.9094 54.3187 48.8329 54.3404 48.7456 54.3404C48.5272 54.3404 48.0849 54.3296 47.4243 54.3079C46.7418 54.2863 46.2668 54.2754 46.0047 54.2754C45.7863 54.2754 45.3659 54.2863 44.7489 54.3079C44.2411 54.3404 43.7825 54.3566 43.3621 54.3566C43.2638 54.3566 43.1819 54.335 43.1164 54.2917C43.0509 54.2484 43.0181 54.1888 43.0181 54.1131C43.0181 53.929 43.1382 53.8099 43.3839 53.7504C43.7716 53.6746 44.05 53.5772 44.2357 53.4635C44.4159 53.3498 44.5087 53.1874 44.5087 52.9818C44.5087 52.8735 44.4978 52.7869 44.4759 52.7219L43.9627 50.822C43.9408 50.7246 43.9081 50.6542 43.8699 50.6109C43.8317 50.5676 43.7716 50.5459 43.6952 50.5459H40.8232C40.7359 50.5459 40.6758 50.5676 40.6431 50.6109C40.6103 50.6542 40.5776 50.7246 40.5448 50.822L40.3155 51.5257C40.2827 51.6448 40.2336 51.8017 40.1681 52.002C40.1026 52.1969 40.0479 52.3755 40.0043 52.5271C39.9606 52.6678 39.9387 52.8085 39.9387 52.9547C39.9387 53.1604 40.0206 53.3228 40.179 53.4364C40.3373 53.5501 40.6212 53.6584 41.0307 53.7558C41.271 53.8099 41.3966 53.929 41.3966 54.1185C41.3966 54.27 41.2819 54.3458 41.0471 54.3458C40.796 54.3458 40.4683 54.335 40.0752 54.3133L39.1853 54.2971C38.8795 54.2971 38.5738 54.3133 38.2789 54.3458C38.1807 54.3566 38.0332 54.3675 37.8312 54.3783C37.6347 54.3891 37.4545 54.3945 37.3016 54.3945C37.0013 54.3891 36.8594 54.2971 36.8594 54.1131ZM43.3457 49.5987C43.5095 49.5987 43.5914 49.5608 43.5914 49.485C43.5914 49.4742 43.5805 49.4146 43.5587 49.3064L42.5049 45.6905C42.4721 45.5823 42.4394 45.5281 42.4066 45.5281C42.3848 45.5281 42.352 45.5823 42.3084 45.6905L41.0362 49.3064C41.0143 49.3497 41.0034 49.393 41.0034 49.4363C41.0034 49.4904 41.0307 49.5337 41.0853 49.5608C41.1399 49.5878 41.2054 49.6041 41.2819 49.6041H43.3457V49.5987Z" fill="#7D7D7D"/>
<path d="M95.1553 54.1131C95.1553 54.0156 95.1881 53.9398 95.2481 53.8911C95.3082 53.8424 95.401 53.7937 95.5211 53.7504C95.8487 53.6638 96.1326 53.5285 96.3729 53.339C96.6076 53.155 96.7823 52.9384 96.8915 52.7003C97.9344 50.2915 98.879 47.9207 99.7143 45.5985C99.8454 45.2358 99.9491 44.9165 100.026 44.6242C100.102 44.3373 100.151 44.1911 100.173 44.1911C100.648 44.0829 101.057 43.9692 101.412 43.8501C101.598 43.7852 101.778 43.6986 101.942 43.5903C102.106 43.482 102.231 43.3792 102.324 43.2818C102.412 43.2385 102.466 43.2168 102.488 43.2168C102.543 43.2168 102.586 43.2547 102.619 43.3305C102.695 43.4929 102.755 43.6444 102.799 43.7906C103.482 45.9936 104.235 48.3374 105.06 50.8274L105.671 52.7111C105.824 53.2145 106.266 53.5609 106.992 53.7558C107.112 53.7991 107.205 53.8424 107.265 53.8857C107.325 53.929 107.358 53.9994 107.358 54.0968C107.358 54.1726 107.325 54.2321 107.265 54.2754C107.205 54.3187 107.129 54.3404 107.042 54.3404C106.823 54.3404 106.381 54.3296 105.72 54.3079C105.038 54.2863 104.563 54.2754 104.301 54.2754C104.082 54.2754 103.662 54.2863 103.045 54.3079C102.537 54.3404 102.078 54.3566 101.658 54.3566C101.56 54.3566 101.478 54.335 101.412 54.2917C101.347 54.2484 101.314 54.1888 101.314 54.1131C101.314 53.929 101.434 53.8099 101.68 53.7504C102.068 53.6746 102.346 53.5772 102.532 53.4635C102.712 53.3498 102.805 53.1874 102.805 52.9818C102.805 52.8735 102.794 52.7869 102.772 52.7219L102.259 50.822C102.237 50.7246 102.204 50.6542 102.166 50.6109C102.128 50.5676 102.068 50.5459 101.991 50.5459H99.1192C99.0318 50.5459 98.9718 50.5676 98.939 50.6109C98.9062 50.6542 98.8735 50.7246 98.8407 50.822L98.6114 51.5257C98.5787 51.6448 98.5295 51.8017 98.464 52.002C98.3985 52.1969 98.3439 52.3755 98.3002 52.5271C98.2565 52.6678 98.2347 52.8085 98.2347 52.9547C98.2347 53.1604 98.3166 53.3228 98.4749 53.4364C98.6333 53.5501 98.9172 53.6584 99.3267 53.7558C99.5669 53.8099 99.6925 53.929 99.6925 54.1185C99.6925 54.27 99.5778 54.3458 99.3431 54.3458C99.0919 54.3458 98.7643 54.335 98.3712 54.3133L97.4812 54.2971C97.1754 54.2971 96.8697 54.3133 96.5749 54.3458C96.4766 54.3566 96.3292 54.3675 96.1272 54.3783C95.9306 54.3891 95.7504 54.3945 95.5975 54.3945C95.2972 54.3891 95.1553 54.2971 95.1553 54.1131ZM101.636 49.5987C101.8 49.5987 101.882 49.5608 101.882 49.485C101.882 49.4742 101.871 49.4146 101.849 49.3064L100.795 45.6905C100.763 45.5823 100.73 45.5281 100.697 45.5281C100.675 45.5281 100.643 45.5823 100.599 45.6905L99.3267 49.3064C99.3048 49.3497 99.2939 49.393 99.2939 49.4363C99.2939 49.4904 99.3212 49.5337 99.3758 49.5608C99.4304 49.5878 99.4959 49.6041 99.5724 49.6041H101.636V49.5987Z" fill="#7D7D7D"/>
<path d="M53.7907 54.2861C53.7143 54.2374 53.6761 54.1779 53.6761 54.1129C53.6761 53.9289 53.7962 53.8098 54.0419 53.7502C54.4841 53.6528 54.7844 53.5337 54.9592 53.3984C55.1284 53.2631 55.2158 53.0357 55.2158 52.7218V45.8852C55.2158 45.3169 55.1939 44.9542 55.1557 44.7972C55.1175 44.6403 55.052 44.532 54.9646 44.4779C54.8336 44.4021 54.6097 44.3642 54.2876 44.3642H54.0091C53.6597 44.3642 53.3157 44.4562 52.9881 44.6349C52.6605 44.8135 52.3876 45.0408 52.1801 45.3115C51.9944 45.5605 51.8252 45.7716 51.6668 45.934C51.514 46.0963 51.3665 46.1775 51.2191 46.1775C51.0444 46.1775 50.957 46.0801 50.957 45.8852C50.957 45.7445 50.9953 45.5984 51.0717 45.4414C51.301 44.9813 51.4703 44.6024 51.5686 44.3047C51.6668 44.007 51.7324 43.6659 51.7651 43.2816C51.7979 43.0002 51.9398 42.854 52.1964 42.854C52.262 42.854 52.3603 42.9406 52.4913 43.1138C52.5787 43.2437 52.666 43.3412 52.7534 43.4061C52.8516 43.4819 53.0318 43.5469 53.2884 43.5956C53.545 43.6443 53.7634 43.6714 53.9382 43.6714L60.2443 43.6551C60.4737 43.6551 60.6866 43.6281 60.8722 43.5793C61.0579 43.5306 61.1944 43.4765 61.2872 43.4224C61.3527 43.3899 61.4783 43.2925 61.6694 43.1301C61.8441 42.9569 61.9915 42.8702 62.1171 42.8702C62.2481 42.8702 62.3137 42.9569 62.3137 43.1301C62.3137 43.1842 62.3027 43.287 62.2809 43.4386C62.2591 43.5144 62.2099 43.6876 62.1335 43.9637C62.057 44.2343 61.997 44.4833 61.9588 44.6998C61.9205 44.9163 61.8987 45.1166 61.8987 45.2898V45.6308C61.8987 45.8365 61.8769 45.9935 61.8332 46.0909C61.7895 46.1884 61.7185 46.2371 61.6202 46.2371C61.511 46.2371 61.4182 46.1884 61.3472 46.0909C61.2763 45.9935 61.1998 45.8311 61.1234 45.5984C60.9814 45.1491 60.7849 44.8297 60.5392 44.6403C60.2935 44.4508 59.9386 44.3534 59.4745 44.3534H58.7975C58.6009 44.3534 58.448 44.3967 58.3443 44.4833C58.2406 44.5699 58.1587 44.7377 58.1041 44.9921C58.0495 45.2411 58.0221 45.6038 58.0221 46.0747V52.7001C58.0221 52.9924 58.104 53.2089 58.2624 53.3443C58.4207 53.4796 58.7265 53.6149 59.1797 53.7448C59.2998 53.7881 59.3926 53.8314 59.4527 53.8747C59.5127 53.918 59.5455 53.9884 59.5455 54.0858C59.5455 54.1616 59.5127 54.2212 59.4527 54.2645C59.3926 54.3078 59.3162 54.3294 59.2288 54.3294C58.9995 54.3294 58.5408 54.3186 57.8584 54.2969L56.5862 54.2645C56.3897 54.2645 55.9801 54.2753 55.3632 54.2969C54.8882 54.3294 54.4459 54.3457 54.0255 54.3457C53.9436 54.3565 53.8672 54.3348 53.7907 54.2861Z" fill="#7D7D7D"/>
<path d="M68.1723 53.3498C67.3642 52.5595 66.9602 51.4823 66.9602 50.1183V45.5389C66.9602 45.2358 66.8837 44.9543 66.7363 44.6945C66.5889 44.4401 66.376 44.2723 66.103 44.1965C65.8082 44.1208 65.6553 44.0017 65.6553 43.8393C65.6553 43.7635 65.6989 43.704 65.7808 43.6607C65.8627 43.6174 65.9665 43.5957 66.0866 43.5957C66.4688 43.5957 66.8674 43.6119 67.2769 43.6444C67.7846 43.6661 68.1395 43.6769 68.347 43.6769C68.5545 43.6769 68.9476 43.6661 69.5209 43.6444C70.116 43.6228 70.531 43.6119 70.7767 43.6119C71.0606 43.6119 71.208 43.6931 71.208 43.8555C71.208 43.9421 71.1643 44.0125 71.077 44.0666C70.9896 44.1208 70.875 44.1749 70.7385 44.2236C70.602 44.2723 70.4873 44.321 70.3999 44.3643C69.9905 44.5592 69.7884 44.9868 69.7884 45.6418V49.8639C69.7884 50.8869 70.0232 51.6664 70.4982 52.1969C70.9732 52.7273 71.5684 52.9926 72.2945 52.9926C73.2718 52.9926 74.0035 52.7165 74.4785 52.159C74.959 51.6014 75.1992 50.7354 75.1992 49.5553C75.1992 49.0952 75.2047 48.7434 75.2156 48.4944L75.232 47.2657C75.232 46.9192 75.2265 46.6648 75.2156 46.5133C75.2047 45.9882 75.1665 45.5877 75.1064 45.3116C75.0463 45.0355 74.9535 44.819 74.8334 44.6729C74.7133 44.5267 74.5331 44.3914 74.2874 44.2723C74.211 44.229 74.1127 44.1857 73.9925 44.1478C73.8724 44.1099 73.7796 44.0666 73.7141 44.0233C73.6486 43.98 73.6158 43.9259 73.6158 43.8609C73.6158 43.6985 73.7796 43.6174 74.1127 43.6174C74.4512 43.6174 74.8006 43.6282 75.1501 43.6498L75.778 43.6661C75.9745 43.6661 76.2202 43.6552 76.5041 43.6336C76.788 43.6119 77.0556 43.6011 77.2958 43.6011C77.5688 43.6011 77.7108 43.6823 77.7108 43.8447C77.7108 43.9963 77.5688 44.1153 77.2794 44.2019C76.9027 44.3102 76.6406 44.478 76.4877 44.7108C76.3349 44.9381 76.2475 45.2683 76.2257 45.6905C76.1711 47.0113 76.1438 48.4403 76.1438 49.9775C76.1438 50.8599 75.9472 51.6501 75.5486 52.343C75.1501 53.0359 74.615 53.5772 73.938 53.9615C73.2609 54.3458 72.5129 54.5406 71.683 54.5406C70.1488 54.5406 68.9804 54.1455 68.1723 53.3498Z" fill="#7D7D7D"/>
<path d="M89.8159 54.227C89.3299 53.9455 88.8931 53.5395 88.4945 53.0145C88.096 52.4786 87.7465 51.9698 87.4408 51.4772C87.135 50.9846 86.8347 50.4325 86.5508 49.81C86.4416 49.5719 86.3106 49.4095 86.1523 49.3175C86.0321 49.2417 85.9011 49.2038 85.7537 49.2038C85.6445 49.2038 85.5899 49.312 85.5899 49.5286V52.7005C85.5899 53.0253 85.6827 53.2581 85.8629 53.388C86.0431 53.5179 86.3816 53.637 86.8784 53.7452C86.9876 53.7669 87.0695 53.8048 87.1187 53.8589C87.1678 53.913 87.1951 53.9888 87.1951 54.0862C87.1951 54.2486 87.1077 54.3298 86.933 54.3298L85.4971 54.2973L84.1594 54.2649C83.9628 54.2649 83.5642 54.2757 82.9691 54.2973C82.5268 54.3298 82.101 54.3461 81.6806 54.3461C81.615 54.3461 81.5495 54.319 81.484 54.2703C81.4185 54.2216 81.3857 54.162 81.3857 54.0971C81.3857 53.913 81.4895 53.7939 81.697 53.7344C82.1283 53.6478 82.4122 53.5341 82.5651 53.3988C82.7125 53.2635 82.7889 53.0307 82.7889 52.7059V45.2957C82.7889 44.9492 82.7234 44.7002 82.5924 44.5487C82.4613 44.4025 82.1938 44.2834 81.8007 44.1968C81.5714 44.1427 81.4513 44.029 81.4513 43.8558C81.4513 43.78 81.484 43.7151 81.5441 43.6664C81.6041 43.6176 81.686 43.5906 81.7843 43.5906C82.1829 43.5906 82.6197 43.6122 83.1056 43.6555C83.5479 43.6988 83.8918 43.7205 84.143 43.7205C84.3505 43.7205 84.6562 43.6988 85.0493 43.6555C85.5353 43.5906 86.0212 43.5581 86.5181 43.5581C87.8394 43.5581 88.8495 43.7746 89.5483 44.2131C90.2472 44.6515 90.5966 45.3011 90.5966 46.178C90.5966 46.8437 90.3892 47.3796 89.9687 47.791C89.5483 48.2024 89.0405 48.4893 88.4345 48.6679C88.4017 48.6787 88.3854 48.7058 88.3854 48.7491C88.3854 48.7924 88.3963 48.8303 88.4181 48.8628C88.9696 49.6801 89.4719 50.3892 89.936 50.99C90.4001 51.5909 90.8478 52.0997 91.2901 52.5111C91.6286 52.825 91.9834 53.0307 92.3547 53.1173C92.726 53.2039 93.1682 53.2472 93.6815 53.2472C93.8453 53.2472 93.9272 53.3501 93.9272 53.5558C93.9272 54.2865 93.2229 54.6546 91.8142 54.6546C90.9624 54.6546 90.2963 54.5085 89.8159 54.227ZM87.4626 48.0941C87.752 47.7261 87.8994 47.2172 87.8994 46.5731C87.8994 45.8099 87.7575 45.2469 87.4681 44.8789C87.1842 44.5108 86.7692 44.3322 86.2287 44.3322C85.9994 44.3322 85.8301 44.435 85.7318 44.6353C85.6335 44.8356 85.5844 45.2361 85.5844 45.837V48.0292C85.5844 48.446 85.7755 48.6517 86.1632 48.6517C86.7365 48.6463 87.1733 48.4622 87.4626 48.0941Z" fill="#7D7D7D"/>
<path d="M110.377 54.308C110.323 54.2539 110.296 54.1944 110.296 54.1294C110.296 54.0644 110.328 53.9995 110.388 53.9345C110.448 53.8696 110.53 53.8209 110.629 53.7884C111.016 53.6801 111.273 53.561 111.415 53.4311C111.551 53.3012 111.622 53.0793 111.622 52.7599V45.2954C111.622 44.949 111.551 44.7 111.409 44.5593C111.267 44.4185 110.973 44.2994 110.536 44.1966C110.328 44.1425 110.225 44.0234 110.225 43.8393C110.225 43.7744 110.257 43.7148 110.323 43.6661C110.388 43.6174 110.454 43.5903 110.519 43.5903C110.929 43.5903 111.355 43.6066 111.808 43.639C112.403 43.6607 112.796 43.6715 112.998 43.6715C113.206 43.6715 113.621 43.6607 114.238 43.639C114.876 43.6174 115.313 43.6066 115.559 43.6066C115.734 43.6066 115.821 43.6878 115.821 43.8502C115.821 43.9476 115.794 44.0234 115.745 44.0721C115.695 44.1208 115.614 44.1641 115.504 44.1966C115.051 44.3265 114.762 44.4618 114.631 44.608C114.5 44.7487 114.434 44.9869 114.434 45.3117V52.5921C114.434 52.8844 114.5 53.1009 114.625 53.2308C114.751 53.3608 114.958 53.4257 115.242 53.4257H116.842C117.262 53.4257 117.639 53.2742 117.983 52.9656C118.289 52.6841 118.589 52.2403 118.873 51.6394C118.982 51.4121 119.07 51.2659 119.13 51.2064C119.19 51.1469 119.261 51.1144 119.337 51.1144C119.414 51.1144 119.474 51.1523 119.512 51.2226C119.55 51.293 119.572 51.3742 119.572 51.4608C119.572 51.4933 119.561 51.5474 119.545 51.6178C119.528 51.6881 119.512 51.7639 119.501 51.8397C119.337 52.4189 119.223 52.8411 119.152 53.1172C119.086 53.3878 119.037 53.7126 119.004 54.0807C118.982 54.2864 118.889 54.3892 118.726 54.3892L117.29 54.373C115.619 54.3297 114.188 54.308 112.998 54.308C112.627 54.308 112.223 54.3243 111.792 54.3567C111.218 54.3784 110.831 54.3892 110.618 54.3892C110.509 54.3892 110.432 54.3622 110.377 54.308Z" fill="#7D7D7D"/>
<path d="M23.6187 62.081C23.9135 62.2488 24.1428 62.4816 24.3121 62.7793C24.4814 63.077 24.5687 63.4181 24.5687 63.7915C24.5687 64.1705 24.4814 64.5061 24.3121 64.8092C24.1428 65.1123 23.9081 65.3451 23.6187 65.5075C23.3239 65.6753 22.9963 65.7565 22.6359 65.7565C22.2756 65.7565 21.948 65.6753 21.6531 65.5075C21.3583 65.3397 21.129 65.1069 20.9598 64.8092C20.7905 64.5115 20.7031 64.1705 20.7031 63.7915C20.7031 63.4126 20.7905 63.077 20.9598 62.7793C21.129 62.4816 21.3638 62.2488 21.6531 62.081C21.948 61.9132 22.2756 61.832 22.6359 61.832C22.9963 61.832 23.3239 61.9132 23.6187 62.081ZM22.0408 62.6873C21.8715 62.7901 21.7351 62.9363 21.6368 63.1257C21.5385 63.3152 21.4893 63.5371 21.4893 63.7915C21.4893 64.046 21.5385 64.2679 21.6368 64.4573C21.7351 64.6468 21.8661 64.793 22.0408 64.8958C22.2101 64.9986 22.4121 65.0474 22.6359 65.0474C22.8598 65.0474 23.0618 64.9986 23.231 64.8958C23.4003 64.793 23.5368 64.6468 23.6351 64.4573C23.7334 64.2679 23.7825 64.046 23.7825 63.7915C23.7825 63.5371 23.7334 63.3152 23.6351 63.1257C23.5368 62.9363 23.4058 62.7901 23.231 62.6873C23.0618 62.5844 22.8598 62.5357 22.6359 62.5357C22.4066 62.5357 22.2101 62.5844 22.0408 62.6873Z" fill="#7D7D7D"/>
<path d="M31.0011 65.7186L30.0947 64.2247H29.7562V65.7186H28.9863V61.8809H30.4605C30.9082 61.8809 31.2522 61.9891 31.487 62.2056C31.7218 62.4221 31.8419 62.709 31.8419 63.0663C31.8419 63.3586 31.76 63.5968 31.5962 63.7916C31.4324 63.9865 31.1976 64.1164 30.8919 64.1814L31.8583 65.7132H31.0011V65.7186ZM29.7617 63.6996H30.395C30.8373 63.6996 31.0557 63.5047 31.0557 63.1204C31.0557 62.9364 31.0011 62.7902 30.8919 62.6874C30.7827 62.5845 30.6189 62.5304 30.3895 62.5304H29.7562V63.6996H29.7617Z" fill="#7D7D7D"/>
<path d="M39.163 62.1897C39.4742 62.417 39.6708 62.731 39.7582 63.1207H38.9446C38.8682 62.9475 38.748 62.8068 38.5788 62.7039C38.415 62.6011 38.2184 62.5469 37.9891 62.5469C37.7652 62.5469 37.5687 62.5957 37.3995 62.6985C37.2302 62.8013 37.0937 62.9475 37.0009 63.1315C36.908 63.321 36.8589 63.5429 36.8589 63.7919C36.8589 64.1925 36.9681 64.5064 37.1865 64.7338C37.4049 64.9557 37.6997 65.0694 38.0765 65.0694C38.3549 65.0694 38.5952 64.9882 38.7917 64.8258C38.9938 64.6634 39.1193 64.436 39.1794 64.1492H37.869V63.6025H39.8237V64.3386C39.7691 64.593 39.6599 64.8258 39.5015 65.0369C39.3432 65.2534 39.1357 65.4212 38.8791 65.5511C38.6225 65.681 38.3276 65.746 37.9946 65.746C37.6124 65.746 37.2793 65.6648 36.99 65.497C36.7006 65.3346 36.4767 65.1018 36.3184 64.8095C36.16 64.5118 36.0781 64.1762 36.0781 63.7973C36.0781 63.4184 36.16 63.0774 36.3184 62.7851C36.4767 62.4928 36.7006 62.2601 36.99 62.0923C37.2793 61.9245 37.6124 61.8433 37.9946 61.8433C38.4587 61.8487 38.8518 61.9623 39.163 62.1897Z" fill="#7D7D7D"/>
<path d="M46.5996 64.9496H45.049L44.776 65.7237H43.957L45.3821 61.9292H46.2666L47.6862 65.7237H46.8672L46.5996 64.9496ZM46.3922 64.365L45.8243 62.7466L45.2565 64.365H46.3922Z" fill="#7D7D7D"/>
<path d="M55.21 65.7186H54.4401L52.7093 63.1096V65.7186H51.9395V61.8809H52.7093L54.4401 64.5115V61.8809H55.21V65.7186Z" fill="#7D7D7D"/>
<path d="M60.5223 61.8857V65.7236H59.7471V61.8857H60.5223Z" fill="#7D7D7D"/>
<path d="M68.0079 62.2163C68.3246 62.4653 68.5375 62.7955 68.6358 63.2231H67.8223C67.7404 63.0174 67.6094 62.855 67.4292 62.7359C67.2545 62.6169 67.0415 62.5573 66.7903 62.5573C66.5883 62.5573 66.4027 62.606 66.2389 62.7089C66.0751 62.8117 65.9441 62.9579 65.8567 63.1419C65.7639 63.3314 65.7202 63.5533 65.7202 63.8023C65.7202 64.0513 65.7639 64.2732 65.8567 64.4572C65.9495 64.6467 66.0751 64.7928 66.2389 64.8903C66.4027 64.9931 66.5883 65.0418 66.7903 65.0418C67.0415 65.0418 67.249 64.9823 67.4292 64.8632C67.6039 64.7441 67.7349 64.5817 67.8223 64.376H68.6358C68.5321 64.7983 68.3246 65.1339 68.0079 65.3828C67.6913 65.6318 67.2927 65.7509 66.8067 65.7509C66.4355 65.7509 66.1133 65.6697 65.8294 65.5019C65.5455 65.3395 65.3271 65.1068 65.1742 64.8091C65.0213 64.5114 64.9395 64.1758 64.9395 63.7969C64.9395 63.418 65.0159 63.0769 65.1742 62.7792C65.3271 62.4815 65.5455 62.2488 65.8294 62.0864C66.1133 61.924 66.4355 61.8374 66.8122 61.8374C67.2872 61.8482 67.6913 61.9673 68.0079 62.2163Z" fill="#7D7D7D"/>
<path d="M80.806 64.0726C80.9479 64.2458 81.0189 64.4461 81.0189 64.6789C81.0189 65.0036 80.9097 65.2581 80.6913 65.4421C80.4729 65.6261 80.1562 65.7236 79.7468 65.7236H78.0869V61.8857H79.714C80.1071 61.8857 80.4074 61.9724 80.6149 62.1402C80.8223 62.308 80.9315 62.5515 80.9315 62.8547C80.9315 63.0928 80.866 63.2877 80.7405 63.4393C80.6149 63.5908 80.4511 63.6883 80.2436 63.737C80.4784 63.7911 80.664 63.8994 80.806 64.0726ZM78.8568 63.4934H79.5502C79.7413 63.4934 79.8887 63.4501 79.9925 63.3635C80.0907 63.2769 80.1453 63.1578 80.1453 62.9954C80.1453 62.8384 80.0962 62.7139 79.9979 62.6273C79.8996 62.5407 79.7468 62.4974 79.5447 62.4974H78.8622V63.4934H78.8568ZM80.0634 64.9603C80.1726 64.8737 80.2272 64.7438 80.2272 64.5706C80.2272 64.4028 80.1726 64.2675 80.058 64.1754C79.9488 64.0834 79.7904 64.0347 79.583 64.0347H78.8568V65.0902H79.5884C79.7959 65.0957 79.9542 65.0524 80.0634 64.9603Z" fill="#7D7D7D"/>
<path d="M86.1683 62.4925V63.4885H87.5387V64.0731H86.1683V65.107H87.7025V65.7186H85.3984V61.8809H87.7025V62.4871H86.1683V62.4925Z" fill="#7D7D7D"/>
<path d="M94.461 64.9496H92.9103L92.6373 65.7237H91.8184L93.2434 61.9292H94.1279L95.5475 65.7237H94.7285L94.461 64.9496ZM94.2535 64.365L93.6856 62.7466L93.1178 64.365H94.2535Z" fill="#7D7D7D"/>
<path d="M100.544 61.8857V64.1321C100.544 64.4352 100.61 64.6572 100.746 64.8087C100.877 64.9603 101.074 65.0361 101.325 65.0361C101.576 65.0361 101.762 64.9603 101.898 64.8087C102.029 64.6572 102.1 64.4352 102.1 64.1321V61.8857H102.87V64.1321C102.87 64.4894 102.804 64.7871 102.668 65.0307C102.537 65.2742 102.351 65.4583 102.117 65.5774C101.882 65.6964 101.614 65.756 101.314 65.756C100.85 65.756 100.479 65.6207 100.2 65.3446C99.9216 65.0685 99.7852 64.668 99.7852 64.1321V61.8857H100.544Z" fill="#7D7D7D"/>
<path d="M110.012 61.8857V62.492H108.942V65.7181H108.166V62.492H107.102V61.8857H110.012Z" fill="#7D7D7D"/>
<path d="M117.393 61.8857L116.082 64.3811V65.7236H115.307V64.3811L113.991 61.8857H114.881L115.706 63.5638L116.53 61.8857H117.393Z" fill="#7D7D7D"/>
<path d="M84.3066 85.8058C86.6107 84.1386 87.7354 82.4606 87.7409 80.6689C87.7409 80.4091 87.5498 80.1926 87.2877 80.1601C85.8791 79.9869 84.5032 80.5823 83.4712 81.1182C79.4418 83.213 76.1822 86.3904 73.0373 89.4758C73.0319 89.4812 73.0209 89.4812 73.0155 89.492C71.514 90.9752 69.8651 92.1769 68.178 93.162C72.2566 89.0536 74.8719 82.8882 74.85 78.6174C74.8446 78.114 74.779 77.4915 74.2713 77.1126C74.0146 76.9178 73.687 76.8366 73.3158 76.8582C73.3103 76.8582 73.3049 76.8528 73.2994 76.8528C73.283 76.8528 73.2666 76.8636 73.2503 76.8636C73.1301 76.8744 73.01 76.8907 72.8845 76.9232C71.2629 77.34 70.3183 78.861 69.614 80.29C67.2553 85.0697 65.59 90.1957 63.9903 95.1594C61.7189 96.0363 59.5295 96.5884 57.6731 96.9294C57.0835 97.0377 56.4938 97.1297 55.9041 97.2163C57.2527 96.5343 58.4866 95.652 59.2292 94.9158C60.6051 93.5572 61.6861 91.7709 62.6362 89.3026C63.2149 87.7978 63.9466 85.5298 63.6353 83.2617C63.5207 82.4227 63.133 81.8868 62.5488 81.7623C62.5434 81.7623 62.5434 81.7623 62.5379 81.7623C62.0738 81.6649 61.6698 81.8652 61.3367 82.0763C58.4703 83.8788 56.7777 86.975 55.6202 89.4758C55.3254 90.1091 55.0469 90.7478 54.7684 91.3866C53.8403 93.4976 52.8848 95.6844 51.487 97.5194C51.4597 97.5519 51.4488 97.5952 51.4324 97.6331C48.0145 97.7793 44.3891 97.5681 40.2396 96.9944C23.8653 93.8224 10.4503 82.688 4.35154 67.2123C2.14573 61.6262 1.02647 55.7206 1.02647 49.669C1.02647 49.3875 0.797149 49.1602 0.513234 49.1602C0.229318 49.1602 0 49.3875 0 49.669C0 55.8506 1.14111 61.8806 3.39605 67.5858C9.62036 83.3862 23.3248 94.7534 40.0704 98.0012C43.4446 98.4667 46.4803 98.6995 49.3358 98.6995C51.4543 98.6995 53.469 98.5641 55.4509 98.3097C55.8659 98.8294 56.2808 99.3544 56.6958 99.8795C59.7206 103.712 62.8546 107.68 66.8895 110.592C67.0533 110.711 67.43 110.981 67.8613 110.981C67.976 110.981 68.1016 110.96 68.2217 110.911C68.2272 110.911 68.2326 110.911 68.2381 110.906C68.2435 110.906 68.2435 110.9 68.249 110.9C68.2544 110.895 68.2599 110.895 68.2708 110.895C68.5766 110.76 68.9424 110.424 68.9478 109.579C68.9533 107.257 67.8886 104.87 65.9503 102.862C64.2414 101.092 62.0629 99.7983 59.9608 98.667C59.4094 98.3693 58.8579 98.0824 58.2901 97.8496C60.8508 97.3516 63.2477 96.6101 65.459 95.6628C65.4644 95.6682 65.4699 95.6736 65.4753 95.679C68.1507 97.265 71.2574 98.4938 75.2431 99.5439C77.0668 100.026 79.0869 100.453 81.1126 100.453C82.3083 100.453 83.504 100.302 84.667 99.9228H84.6724H84.6779C84.6833 99.9228 84.6833 99.9174 84.6833 99.9174C84.7598 99.8903 84.8307 99.8416 84.8853 99.7821C84.8908 99.7766 84.8963 99.7712 84.9017 99.7658C84.94 99.7225 84.9727 99.6738 84.9945 99.6143C85 99.598 85 99.5764 85.0055 99.5601C85.0109 99.5493 85.0164 99.5385 85.0218 99.5276C85.0218 99.5114 85.0164 99.5006 85.0164 99.4843C85.0218 99.4194 85.0164 99.3598 85 99.2949C84.9946 99.2786 84.9945 99.2624 84.9891 99.2408C84.9563 99.165 84.9126 99.1 84.8471 99.0459C84.8417 99.0405 84.8417 99.0351 84.8362 99.0351C80.7031 95.7115 73.8836 93.8819 68.0797 94.3745C70.0999 93.2594 71.918 91.9495 73.4905 90.4447C75.5707 89.9359 80.572 88.5069 84.3066 85.8058ZM62.6744 84.301C62.6962 85.638 62.3741 87.1103 61.6643 88.9507C60.7689 91.2837 59.7588 92.9509 58.4921 94.2067C57.8588 94.8346 56.8541 95.5599 55.7622 96.15C60.5396 92.3663 62.1393 87.132 62.6744 84.301ZM61.6042 84.4472C61.0637 87.1049 59.5622 91.6518 55.4618 95.0782C56.2917 94.0227 57.1763 92.6749 57.9952 90.986C59.3493 88.1929 60.6815 85.9195 61.6042 84.4472ZM55.6966 91.798C55.9751 91.1646 56.2535 90.5313 56.5429 89.9088C57.4984 87.8465 58.8306 85.362 60.8945 83.6569C59.9499 85.1509 58.5249 87.5542 57.0725 90.5421C56.1607 92.4259 55.1506 93.8711 54.2497 94.9375C54.7739 93.9036 55.238 92.8427 55.6966 91.798ZM83.7006 84.9831C81.8769 86.2984 79.3162 87.538 76.4989 88.5015L86.3377 82.1737C85.8845 83.1048 85.0164 84.0358 83.7006 84.9831ZM83.9463 82.0276C84.5359 81.7244 85.1857 81.4267 85.8627 81.2698L77.5472 86.6178C79.5182 84.8586 81.6039 83.2455 83.9463 82.0276ZM72.3603 79.9815C71.383 84.3768 68.9042 88.5881 66.9113 91.4461L72.3603 79.9815ZM67.5064 92.4096C69.9143 89.0428 73.1411 83.6082 73.7198 78.0274C73.8181 78.2006 73.829 78.5146 73.829 78.6337C73.8454 82.6717 71.3666 88.5069 67.5064 92.4096ZM70.5312 80.7447C70.8752 80.0464 71.2847 79.3265 71.7925 78.7798L67.7303 87.3214C68.5657 85.0859 69.4775 82.8774 70.5312 80.7447ZM59.2565 101.465C62.1011 104.167 64.3615 106.716 65.8193 108.454C63.3842 106.402 61.2657 103.961 59.2565 101.465ZM59.9117 100.681C62.3905 102.521 65.5026 105.244 66.8621 108.118C65.3989 106.343 62.9856 103.593 59.9117 100.681ZM67.3699 106.884C66.1415 104.751 64.154 102.781 62.2376 101.189C63.346 101.909 64.3287 102.673 65.1914 103.566C66.1851 104.594 66.9113 105.725 67.3699 106.884ZM75.4943 98.5533C72.9827 97.8929 70.8315 97.1622 68.9315 96.3124C72.0873 96.767 77.6619 97.7197 82.6249 99.322C80.228 99.6413 77.7165 99.1379 75.4943 98.5533ZM80.6867 97.6818C76.3788 96.4802 71.9617 95.7278 69.2263 95.3272C73.0701 95.1919 77.2633 96.0579 80.6867 97.6818Z" fill="#7D7D7D"/>
</svg>
